<svg width="41" height="42" viewBox="0 0 41 42" fill="none" xmlns="http://www.w3.org/2000/svg">
<rect width="32" height="32" rx="8" transform="matrix(0.939693 -0.34202 0.340242 0.940338 0.00927734 10.981)" fill="#054F48"/>
<g clip-path="url(#clip0_130_5590)">
<path d="M23.2041 26.6986C19.8393 27.9232 16.124 26.1864 14.9057 22.8194C13.6873 19.4522 15.4274 15.7299 18.7922 14.5052C22.157 13.2805 25.8724 15.0173 27.0907 18.3844C28.309 21.7515 26.5689 25.4739 23.2041 26.6986ZM22.7629 25.4792C25.4548 24.4995 26.8468 21.5216 25.8722 18.8279C24.8975 16.1342 21.9253 14.7447 19.2334 15.7245C16.5416 16.7043 15.1495 19.6822 16.1242 22.3759C17.0988 25.0696 20.0711 26.459 22.7629 25.4792ZM21.6074 20.3801L24.0444 19.4931L24.4856 20.7125L20.8301 22.0429L19.2859 17.7753L20.5044 17.3318L21.6074 20.3801Z" fill="white"/>
</g>
<defs>
<clipPath id="clip0_130_5590">
<rect width="15.5604" height="15.5604" fill="white" transform="matrix(0.939692 -0.34202 0.340242 0.940338 11.0405 15.9468)"/>
</clipPath>
</defs>
</svg>
