<svg width="250" height="250" viewBox="0 0 250 250" fill="none" xmlns="http://www.w3.org/2000/svg">
<path d="M38.8552 180.635C43.0829 180.635 46.5102 177.207 46.5102 172.98C46.5102 168.752 43.0829 165.325 38.8552 165.325C34.6275 165.325 31.2002 168.752 31.2002 172.98C31.2002 177.207 34.6275 180.635 38.8552 180.635Z" fill="#E0E0E0"/>
<path d="M59.2016 178.266C62.1911 175.276 62.1911 170.43 59.2016 167.44C56.2121 164.451 51.3653 164.451 48.3758 167.44C45.3863 170.43 45.3863 175.276 48.3758 178.266C51.3653 181.255 56.2121 181.255 59.2016 178.266Z" fill="#EBEBEB"/>
<path d="M29.3354 178.267C32.3248 175.277 32.3248 170.431 29.3354 167.441C26.3459 164.452 21.499 164.452 18.5096 167.441C15.5201 170.431 15.5201 175.277 18.5096 178.267C21.499 181.256 26.3459 181.256 29.3354 178.267Z" fill="#EBEBEB"/>
<path d="M13.75 174.5H63.75C63.75 174.5 63.25 195.115 49.815 197.635L49.6 202H27.1V197.545C27.1 197.545 13.75 194.145 13.75 174.5Z" fill="#E0E0E0"/>
<path d="M49.8103 197.635C49.8103 197.71 44.7053 197.765 38.4103 197.765C32.1153 197.765 27.0103 197.71 27.0103 197.635C27.0103 197.56 32.1153 197.505 38.4103 197.505C44.7053 197.505 49.8103 197.565 49.8103 197.635Z" fill="white"/>
<path d="M61.81 185.12C61.81 185.12 61.7 185.12 61.49 185.16L60.545 185.24C59.333 185.358 58.1101 185.299 56.915 185.065C56.048 184.89 55.2197 184.559 54.47 184.09C53.5722 183.524 52.8542 182.714 52.4 181.755C52.1602 181.212 52.0408 180.623 52.05 180.03C52.0713 179.392 52.2916 178.776 52.68 178.27C52.8879 178.004 53.1549 177.79 53.46 177.645C53.7754 177.511 54.1206 177.465 54.46 177.51C54.8126 177.579 55.1455 177.725 55.435 177.938C55.7246 178.15 55.9636 178.424 56.135 178.74C56.4806 179.408 56.5831 180.175 56.425 180.91C56.2707 181.663 55.9792 182.382 55.565 183.03C54.6821 184.408 53.3746 185.461 51.84 186.03C50.1962 186.639 48.3865 186.629 46.75 186C45.897 185.673 45.1108 185.194 44.43 184.585C43.7024 183.976 43.1573 183.179 42.855 182.28C42.7152 181.805 42.7152 181.3 42.855 180.825C42.9956 180.33 43.3264 179.911 43.775 179.66C44.2445 179.451 44.7686 179.4 45.2695 179.514C45.7704 179.627 46.2213 179.899 46.555 180.29C47.2033 181.075 47.6082 182.033 47.72 183.045C47.8751 184.057 47.8446 185.089 47.63 186.09C47.2059 188.164 46.0596 190.021 44.395 191.33C43.5412 191.984 42.5656 192.462 41.525 192.735C40.4681 192.999 39.3726 193.071 38.29 192.95C36.1166 192.732 34.1081 191.693 32.675 190.045C31.9742 189.236 31.4998 188.256 31.3 187.205C31.1088 186.152 31.3386 185.065 31.94 184.18C32.2184 183.732 32.6068 183.364 33.068 183.109C33.5293 182.854 34.0481 182.722 34.575 182.725C35.0935 182.754 35.595 182.92 36.0275 183.208C36.46 183.495 36.8078 183.893 37.035 184.36C37.2456 184.832 37.2811 185.364 37.135 185.86C36.9873 186.344 36.7149 186.78 36.345 187.125C35.6263 187.776 34.754 188.233 33.81 188.455C32.0782 188.929 30.2531 188.949 28.5116 188.511C26.7701 188.073 25.1713 187.192 23.87 185.955C23.2738 185.372 22.813 184.665 22.52 183.885C22.2395 183.124 22.1925 182.297 22.385 181.51C22.5558 180.742 22.9912 180.059 23.615 179.58C24.2299 179.144 24.9902 178.965 25.735 179.08C26.4486 179.168 27.1014 179.526 27.56 180.08C27.9872 180.607 28.2249 181.262 28.235 181.94C28.2376 182.579 28.0323 183.202 27.65 183.715C27.2947 184.188 26.8474 184.584 26.335 184.88C25.4206 185.399 24.4327 185.777 23.405 186C22.5512 186.204 21.6841 186.348 20.81 186.43C19.5998 186.552 18.3803 186.552 17.17 186.43C16.345 186.335 15.915 186.24 15.915 186.24C15.915 186.24 16.025 186.24 16.24 186.275C16.455 186.31 16.765 186.34 17.175 186.375C18.3814 186.482 19.5952 186.473 20.8 186.35C21.6675 186.258 22.5278 186.107 23.375 185.9C24.3877 185.679 25.3606 185.305 26.26 184.79C26.755 184.502 27.1869 184.118 27.53 183.66C27.8888 183.174 28.0801 182.584 28.075 181.98C28.0608 181.339 27.8339 180.722 27.43 180.225C26.997 179.708 26.3843 179.374 25.715 179.29C25.0088 179.191 24.2916 179.37 23.715 179.79C23.1339 180.245 22.7292 180.889 22.57 181.61C22.3875 182.36 22.4345 183.147 22.705 183.87C22.9898 184.623 23.4351 185.306 24.01 185.87C25.2895 187.071 26.8566 187.924 28.5605 188.345C30.2645 188.766 32.0481 188.742 33.74 188.275C34.643 188.061 35.4772 187.623 36.165 187C36.5031 186.684 36.7531 186.286 36.89 185.845C37.0194 185.401 36.9857 184.926 36.795 184.505C36.5904 184.077 36.2746 183.712 35.8805 183.448C35.4864 183.184 35.0286 183.031 34.555 183.005C34.0756 182.986 33.6011 183.107 33.19 183.355C32.7686 183.604 32.4095 183.946 32.14 184.355C31.5769 185.187 31.3632 186.207 31.545 187.195C31.7399 188.2 32.1951 189.136 32.865 189.91C34.2557 191.507 36.2029 192.514 38.31 192.725C39.3609 192.841 40.424 192.77 41.45 192.515C42.4574 192.247 43.402 191.783 44.23 191.15C45.8639 189.866 46.9833 188.039 47.385 186C47.5945 185.028 47.625 184.027 47.475 183.045C47.3682 182.083 46.9883 181.172 46.38 180.42C46.0822 180.066 45.6778 179.817 45.2272 179.712C44.7767 179.607 44.3041 179.65 43.88 179.835C43.4925 180.05 43.2052 180.409 43.08 180.835C42.9525 181.266 42.9525 181.724 43.08 182.155C43.372 183.01 43.8904 183.771 44.58 184.355C45.2422 184.942 46.0042 185.406 46.83 185.725C48.4164 186.35 50.1766 186.375 51.78 185.795C53.2729 185.24 54.5462 184.218 55.41 182.88C55.8143 182.256 56.0991 181.563 56.25 180.835C56.4017 180.144 56.3098 179.421 55.99 178.79C55.8336 178.497 55.6145 178.243 55.3482 178.045C55.082 177.847 54.7753 177.71 54.45 177.645C54.137 177.597 53.8168 177.637 53.525 177.76C53.2452 177.893 52.9991 178.088 52.805 178.33C52.4334 178.807 52.2218 179.39 52.2 179.995C52.1863 180.565 52.2972 181.132 52.525 181.655C52.9612 182.592 53.6548 183.386 54.525 183.945C55.2567 184.423 56.0703 184.762 56.925 184.945C58.1103 185.188 59.3238 185.264 60.53 185.17L61.47 185.115C61.7 185.12 61.81 185.12 61.81 185.12Z" fill="white"/>
<path d="M212.21 86.2598C212.015 86.9148 208.685 92.1648 203.88 93.9498C199.075 95.7348 195.505 97.7098 196.84 100.06C198.175 102.41 204.075 101.13 204.075 101.13C204.075 101.13 192.1 114.13 203.375 121.585C217.12 130.66 231.5 98.1898 231.5 98.1898L212.21 86.2598Z" fill="#EBEBEB"/>
<path d="M229.22 102.645C229.185 102.705 224.655 100.005 219.1 96.6149C213.545 93.2249 209.075 90.4199 209.1 90.3599C209.125 90.2999 213.67 92.9999 219.22 96.3899C224.77 99.7799 229.26 102.585 229.22 102.645Z" fill="#E0E0E0"/>
<path d="M227.095 106.54C227.055 106.6 222.16 103.725 216.16 100.125C210.16 96.5248 205.325 93.5448 205.36 93.4848C205.395 93.4248 210.295 96.2948 216.295 99.8998C222.295 103.505 227.13 106.5 227.095 106.54Z" fill="#E0E0E0"/>
<path d="M224.525 110.23C224.49 110.29 218.99 107.055 212.25 103.005C205.51 98.9549 200.07 95.6199 200.105 95.5599C200.14 95.4999 205.64 98.7299 212.385 102.78C219.13 106.83 224.56 110.165 224.525 110.23Z" fill="#E0E0E0"/>
<path d="M221.32 114.795C221.28 114.855 217.02 112.255 211.82 108.99C206.62 105.725 202.405 103.03 202.445 102.99C202.485 102.95 206.74 105.53 211.945 108.795C217.15 112.06 221.355 114.735 221.32 114.795Z" fill="#E0E0E0"/>
<path d="M217.55 119.2C217.51 119.26 213.55 116.7 208.69 113.485C203.83 110.27 199.935 107.61 200 107.55C200.065 107.49 204 110.05 208.86 113.27C213.72 116.49 217.59 119.14 217.55 119.2Z" fill="#E0E0E0"/>
<path d="M212.74 122.26C212.531 122.187 212.33 122.093 212.14 121.98C211.76 121.78 211.22 121.48 210.555 121.11C209.225 120.365 207.415 119.29 205.455 118.035C203.495 116.78 201.76 115.58 200.525 114.685C199.91 114.235 199.415 113.865 199.08 113.605C198.898 113.48 198.73 113.336 198.58 113.175C198.779 113.271 198.969 113.386 199.145 113.52L200.645 114.52C201.905 115.375 203.645 116.55 205.61 117.805C207.575 119.06 209.36 120.155 210.665 120.945L212.205 121.88C212.395 121.989 212.574 122.117 212.74 122.26Z" fill="#E0E0E0"/>
<path d="M201.465 101.43C200.514 101.186 199.615 100.773 198.81 100.21C197.96 99.7202 197.206 99.0797 196.585 98.3198C196.635 98.2598 197.585 99.1398 198.95 99.9898C200.315 100.84 201.5 101.355 201.465 101.43Z" fill="#E0E0E0"/>
<path d="M230.59 97.5C230.547 97.6027 230.49 97.6987 230.42 97.785L229.885 98.56C229.42 99.235 228.73 100.2 227.885 101.38C226.16 103.75 223.725 106.985 220.945 110.485C218.165 113.985 215.56 117.09 213.645 119.31C212.69 120.42 211.905 121.31 211.355 121.915C211.095 122.2 210.885 122.415 210.72 122.61C210.65 122.696 210.571 122.775 210.485 122.845C210.54 122.75 210.606 122.661 210.68 122.58L211.28 121.85L213.5 119.2C215.38 116.955 217.955 113.83 220.735 110.335C223.515 106.84 225.97 103.62 227.735 101.28L229.825 98.51L230.395 97.765C230.453 97.6717 230.518 97.5831 230.59 97.5Z" fill="#E0E0E0"/>
<path d="M226.695 94.7346C226.75 94.7796 221.975 101.01 216.03 108.65C210.085 116.29 205.22 122.45 205.16 122.405C205.1 122.36 209.88 116.135 215.825 108.49C221.77 100.845 226.64 94.6896 226.695 94.7346Z" fill="#E0E0E0"/>
<path d="M221.26 91.6548C221.218 91.7625 221.166 91.8663 221.105 91.9648L220.605 92.8248C220.175 93.5698 219.525 94.6348 218.69 95.9248C217.02 98.5098 214.54 101.965 211.615 105.64C208.69 109.315 205.925 112.54 203.93 114.88L201.555 117.635L200.895 118.38C200.823 118.468 200.742 118.55 200.655 118.625C200.715 118.527 200.782 118.433 200.855 118.345L201.475 117.57L203.79 114.76C205.75 112.39 208.49 109.145 211.41 105.475C214.33 101.805 216.83 98.3748 218.535 95.8198C219.39 94.5448 220.06 93.4998 220.535 92.7698L221.065 91.9348C221.119 91.8343 221.185 91.7404 221.26 91.6548Z" fill="#E0E0E0"/>
<path d="M216.8 89.0999C216.855 89.1449 212.8 94.5299 207.71 101.13C202.62 107.73 198.5 113.045 198.415 113C198.33 112.955 202.415 107.57 207.505 100.965C212.595 94.3599 216.74 89.0549 216.8 89.0999Z" fill="#E0E0E0"/>
<path d="M213.445 86.9146C213.321 87.1654 213.177 87.4062 213.015 87.6346C212.875 87.8596 212.69 88.1345 212.465 88.4445C212.24 88.7545 211.99 89.1146 211.68 89.4846C210.975 90.3619 210.219 91.1967 209.415 91.9846C207.44 93.9316 205.193 95.5821 202.745 96.8846C201.747 97.4137 200.719 97.8829 199.665 98.2896C199.22 98.4746 198.8 98.5995 198.44 98.7245C198.132 98.8355 197.818 98.9306 197.5 99.0096C197.233 99.094 196.961 99.1592 196.685 99.2046C196.938 99.0851 197.2 98.988 197.47 98.9146C197.725 98.8296 198.035 98.7295 198.39 98.5895C198.745 98.4495 199.16 98.3146 199.595 98.1196C200.631 97.6906 201.644 97.2082 202.63 96.6746C203.833 96.01 204.993 95.272 206.105 94.4645C207.208 93.646 208.258 92.7593 209.25 91.8095C210.057 91.0312 210.82 90.2082 211.535 89.3446C211.855 88.9846 212.11 88.6346 212.345 88.3446C212.58 88.0546 212.78 87.7795 212.935 87.5595C213.086 87.3299 213.256 87.114 213.445 86.9146Z" fill="#E0E0E0"/>
<path d="M236.765 79.7397H172.83V86.4897H236.765V79.7397Z" fill="#E0E0E0"/>
<path d="M193.1 86.2598C192.905 86.9148 189.575 92.1648 184.77 93.9498C179.965 95.7348 176.395 97.7098 177.73 100.06C179.065 102.41 184.965 101.13 184.965 101.13C184.965 101.13 172.99 114.13 184.265 121.585C198.01 130.66 212.375 98.1898 212.375 98.1898L193.1 86.2598Z" fill="#F5F5F5"/>
<path d="M210.11 102.645C210.075 102.705 205.545 100.005 199.99 96.6149C194.435 93.2249 189.965 90.4199 189.99 90.3599C190.015 90.2999 194.56 92.9999 200.11 96.3899C205.66 99.7799 210.15 102.585 210.11 102.645Z" fill="#E0E0E0"/>
<path d="M208 106.54C207.96 106.6 203.065 103.725 197.065 100.125C191.065 96.5245 186.215 93.5445 186.25 93.4995C186.285 93.4545 191.185 96.3095 197.185 99.9145C203.185 103.52 208 106.5 208 106.54Z" fill="#E0E0E0"/>
<path d="M205.415 110.23C205.38 110.29 199.88 107.055 193.14 103.005C186.4 98.9549 180.96 95.6199 181 95.5599C181.04 95.4999 186.535 98.7299 193.28 102.78C200.025 106.83 205.45 110.165 205.415 110.23Z" fill="#E0E0E0"/>
<path d="M202.21 114.795C202.17 114.855 197.91 112.255 192.71 108.99C187.51 105.725 183.295 103.03 183.335 102.99C183.375 102.95 187.63 105.53 192.835 108.795C198.04 112.06 202.245 114.735 202.21 114.795Z" fill="#E0E0E0"/>
<path d="M198.44 119.2C198.4 119.26 194.44 116.7 189.58 113.485C184.72 110.27 180.825 107.61 180.865 107.55C180.905 107.49 184.865 110.05 189.725 113.27C194.585 116.49 198.5 119.14 198.44 119.2Z" fill="#E0E0E0"/>
<path d="M193.63 122.26C193.421 122.187 193.22 122.093 193.03 121.98C192.65 121.78 192.11 121.48 191.445 121.11C190.115 120.365 188.305 119.29 186.345 118.035C184.385 116.78 182.65 115.58 181.415 114.685C180.8 114.235 180.305 113.865 179.97 113.605C179.788 113.48 179.621 113.336 179.47 113.175C179.669 113.271 179.859 113.386 180.035 113.52L181.535 114.52C182.795 115.375 184.535 116.55 186.5 117.805C188.465 119.06 190.25 120.155 191.55 120.945L193.095 121.88C193.285 121.989 193.464 122.117 193.63 122.26Z" fill="#E0E0E0"/>
<path d="M182.355 101.43C181.404 101.186 180.505 100.773 179.7 100.21C178.85 99.7202 178.096 99.0797 177.475 98.3198C177.525 98.2598 178.475 99.1398 179.84 99.9898C181.205 100.84 182.385 101.355 182.355 101.43Z" fill="#E0E0E0"/>
<path d="M211.5 97.5C211.457 97.6027 211.4 97.6987 211.33 97.785L210.795 98.56C210.33 99.235 209.64 100.2 208.795 101.38C207.07 103.75 204.635 106.985 201.855 110.485C199.075 113.985 196.43 117.1 194.5 119.32C193.545 120.43 192.76 121.32 192.21 121.925C191.95 122.21 191.74 122.425 191.575 122.62C191.505 122.706 191.426 122.785 191.34 122.855C191.395 122.76 191.461 122.671 191.535 122.59L192.135 121.86L194.36 119.2C196.24 116.955 198.815 113.83 201.595 110.335C204.375 106.84 206.83 103.62 208.595 101.28L210.685 98.51L211.255 97.765C211.329 97.6698 211.411 97.5812 211.5 97.5Z" fill="#E0E0E0"/>
<path d="M207.585 94.7346C207.64 94.7796 202.865 101.01 196.92 108.65C190.975 116.29 186.11 122.45 186.05 122.405C185.99 122.36 190.77 116.135 196.715 108.49C202.66 100.845 207.53 94.6896 207.585 94.7346Z" fill="#E0E0E0"/>
<path d="M202.15 91.6548C202.108 91.7625 202.056 91.8663 201.995 91.9648L201.495 92.8248C201.065 93.5698 200.415 94.6348 199.58 95.9248C197.91 98.5098 195.43 101.965 192.505 105.64C189.58 109.315 186.815 112.54 184.82 114.88L182.445 117.635L181.785 118.38C181.712 118.468 181.632 118.55 181.545 118.625C181.603 118.525 181.67 118.432 181.745 118.345L182.365 117.57L184.68 114.76C186.64 112.39 189.38 109.145 192.3 105.475C195.22 101.805 197.72 98.3748 199.425 95.8198C200.28 94.5448 200.95 93.4998 201.425 92.7698C201.64 92.4248 201.82 92.1498 201.955 91.9348C202.009 91.8343 202.074 91.7404 202.15 91.6548Z" fill="#E0E0E0"/>
<path d="M197.69 89.0999C197.745 89.1449 193.69 94.5299 188.6 101.13C183.51 107.73 179.365 113.045 179.305 113C179.245 112.955 183.305 107.57 188.395 100.965C193.485 94.3599 197.63 89.0549 197.69 89.0999Z" fill="#E0E0E0"/>
<path d="M194.335 86.9146C194.211 87.1654 194.067 87.4062 193.905 87.6346C193.765 87.8596 193.58 88.1345 193.355 88.4445C193.13 88.7545 192.88 89.1146 192.57 89.4846C191.865 90.3619 191.109 91.1967 190.305 91.9846C188.33 93.9316 186.084 95.5821 183.635 96.8846C182.637 97.4128 181.608 97.882 180.555 98.2896C180.11 98.4746 179.69 98.5995 179.33 98.7245C179.022 98.8355 178.708 98.9306 178.39 99.0096C178.124 99.094 177.851 99.1592 177.575 99.2046C177.828 99.0851 178.091 98.988 178.36 98.9146C178.615 98.8296 178.925 98.7295 179.28 98.5895C179.635 98.4495 180.05 98.3146 180.485 98.1196C181.521 97.6906 182.534 97.2082 183.52 96.6746C184.724 96.0215 185.886 95.2952 187 94.4995C188.103 93.681 189.153 92.7943 190.145 91.8446C190.952 91.0662 191.715 90.2432 192.43 89.3795C192.75 89.0195 193.005 88.6695 193.24 88.3795C193.475 88.0895 193.67 87.8146 193.825 87.5946C193.975 87.3534 194.146 87.1258 194.335 86.9146Z" fill="#E0E0E0"/>
<path d="M206.88 45.96H202.79V50.05H206.88V45.96Z" fill="#E0E0E0"/>
<path d="M223.985 55.4897H185.875V79.5397H223.985V55.4897Z" fill="#F5F5F5"/>
<path d="M185.875 55.4998C185.875 55.4998 191.71 49.4048 206.34 49.6498C220.97 49.8948 224 55.4998 224 55.4998H185.875Z" fill="#F5F5F5"/>
<path d="M223.84 55.885C223.84 55.955 215.27 56.015 204.705 56.015C194.14 56.015 185.57 55.955 185.57 55.885C185.57 55.815 194.135 55.75 204.705 55.75C215.275 55.75 223.84 55.81 223.84 55.885Z" fill="#E0E0E0"/>
<path d="M223.84 55.8849H232.45C232.816 55.8849 233.167 56.0303 233.426 56.2891C233.684 56.5479 233.83 56.8989 233.83 57.2649V57.7949C233.83 58.1609 233.684 58.5119 233.426 58.7707C233.167 59.0295 232.816 59.1749 232.45 59.1749H223.84V55.8799V55.8849Z" fill="#E0E0E0"/>
<path d="M186.015 59.1747H177.405C177.039 59.1747 176.688 59.0293 176.429 58.7705C176.171 58.5117 176.025 58.1607 176.025 57.7947V57.2647C176.025 56.8987 176.171 56.5477 176.429 56.2889C176.688 56.0301 177.039 55.8847 177.405 55.8847H186.015V59.1797V59.1747Z" fill="#E0E0E0"/>
<path d="M209.1 44.7798H200.765C200.218 44.7798 199.775 45.223 199.775 45.7698V46.1498C199.775 46.6965 200.218 47.1398 200.765 47.1398H209.1C209.647 47.1398 210.09 46.6965 210.09 46.1498V45.7698C210.09 45.223 209.647 44.7798 209.1 44.7798Z" fill="#E0E0E0"/>
<path d="M235.25 201.885C235.25 201.955 185.885 202.015 125.005 202.015C64.125 202.015 14.75 201.955 14.75 201.885C14.75 201.815 64.105 201.755 125.005 201.755C185.905 201.755 235.25 201.815 235.25 201.885Z" fill="#263238"/>
<path d="M161.96 128.78C161.76 129.635 157.505 168.375 157.505 168.375L153.655 173.85L152.61 182.23L160.61 202.015H101.42C101.42 202.015 100.485 191.56 100.565 188.765C100.645 185.97 102.065 175.715 102.065 175.715L101.93 165.3L99.6899 119.905L119.74 113.435C131.855 111.35 149.685 120.435 149.685 120.435L161.96 128.78Z" fill="#FFCB45"/>
<path d="M154.27 99.9051C156.905 99.7401 158.925 97.5401 160.375 95.3351C161.735 93.2751 162.875 90.9651 162.905 88.5001C162.905 86.3601 162.065 84.3201 161.225 82.3501C160.385 80.3801 159.48 78.2701 158.125 76.5351C156.77 74.8001 154.85 73.3901 152.66 73.1201" fill="#263238"/>
<path d="M123.47 110.23L123.5 109.575L125.045 71.7502L125.9 69.6052L144.82 67.0002C146.287 66.8859 147.761 67.07 149.155 67.5415C150.549 68.013 151.833 68.7619 152.929 69.7432C154.025 70.7245 154.911 71.9178 155.533 73.251C156.156 74.5842 156.501 76.0297 156.55 77.5002C156.79 84.3852 156.82 92.8002 155.86 97.9052C153.94 108.145 146 109.24 146 109.24C146 109.24 145.865 111.925 145.715 115.81C145.605 118.74 143.015 127.195 140.08 127.28C138.82 127.315 135.38 126.22 133.74 125.98C123.395 124.47 123.47 110.23 123.47 110.23Z" fill="#FFBE9D"/>
<path d="M153.055 83.47C153.05 83.8149 152.91 84.144 152.665 84.387C152.42 84.6299 152.09 84.7674 151.745 84.77C151.576 84.7787 151.408 84.7536 151.249 84.6961C151.09 84.6387 150.945 84.55 150.821 84.4354C150.697 84.3208 150.597 84.1825 150.527 84.0287C150.458 83.8749 150.419 83.7087 150.415 83.54C150.42 83.1951 150.56 82.866 150.805 82.623C151.05 82.38 151.38 82.2425 151.725 82.24C151.894 82.2312 152.062 82.2563 152.221 82.3138C152.38 82.3713 152.525 82.4599 152.649 82.5746C152.773 82.6892 152.873 82.8275 152.943 82.9813C153.012 83.135 153.051 83.3012 153.055 83.47Z" fill="#263238"/>
<path d="M154.605 81.795C154.435 81.965 153.455 81.195 152.03 81.16C150.605 81.125 149.53 81.805 149.395 81.625C149.32 81.55 149.495 81.24 149.96 80.925C150.587 80.5132 151.326 80.307 152.075 80.335C152.816 80.3525 153.532 80.6046 154.12 81.055C154.545 81.405 154.685 81.72 154.605 81.795Z" fill="#263238"/>
<path d="M139.13 83.3352C139.125 83.6801 138.985 84.0092 138.74 84.2522C138.495 84.4952 138.165 84.6326 137.82 84.6352C137.651 84.6439 137.482 84.6188 137.324 84.5614C137.165 84.5039 137.019 84.4153 136.895 84.3006C136.771 84.186 136.672 84.0477 136.602 83.8939C136.532 83.7401 136.494 83.574 136.49 83.4052C136.495 83.0603 136.635 82.7312 136.88 82.4882C137.125 82.2453 137.455 82.1078 137.8 82.1052C137.968 82.0965 138.137 82.1216 138.296 82.179C138.454 82.2365 138.6 82.3252 138.724 82.4398C138.848 82.5544 138.948 82.6927 139.017 82.8465C139.087 83.0003 139.125 83.1664 139.13 83.3352Z" fill="#263238"/>
<path d="M140.61 81.675C140.44 81.845 139.455 81.075 138.035 81.04C136.615 81.005 135.535 81.685 135.4 81.505C135.325 81.43 135.5 81.12 135.965 80.805C136.591 80.3926 137.331 80.1863 138.08 80.215C138.821 80.2325 139.537 80.4846 140.125 80.935C140.55 81.285 140.69 81.6 140.61 81.675Z" fill="#263238"/>
<path d="M145.5 92.3698C145.5 92.2898 146.385 92.1598 147.825 92.0198C148.19 91.9898 148.535 91.9248 148.605 91.6798C148.644 91.3048 148.569 90.9268 148.39 90.5948L147.39 87.7998C146.01 83.7998 145.015 80.5498 145.18 80.4948C145.345 80.4398 146.59 83.6248 147.975 87.6048C148.305 88.6048 148.625 89.5198 148.925 90.4148C149.143 90.8603 149.196 91.3688 149.075 91.8498C149.017 91.9734 148.932 92.0824 148.827 92.1689C148.721 92.2555 148.598 92.3173 148.465 92.3498C148.262 92.3984 148.054 92.4202 147.845 92.4148C146.38 92.4698 145.5 92.4498 145.5 92.3698Z" fill="#263238"/>
<path d="M146 109.24C141.142 109.179 136.396 107.772 132.29 105.175C132.29 105.175 135.445 112.35 145.79 111.675L146 109.24Z" fill="#EB996E"/>
<path d="M144.785 95.785C144.522 95.4396 144.176 95.1666 143.779 94.9917C143.382 94.8167 142.947 94.7456 142.515 94.785C142.2 94.8047 141.892 94.8874 141.609 95.0282C141.327 95.1691 141.075 95.3652 140.87 95.605C140.675 95.8385 140.556 96.1257 140.529 96.4283C140.501 96.731 140.566 97.035 140.715 97.3C140.938 97.558 141.234 97.7434 141.564 97.8325C141.893 97.9215 142.242 97.9102 142.565 97.8C143.244 97.5819 143.873 97.23 144.415 96.765C144.578 96.656 144.719 96.5168 144.83 96.355C144.883 96.2769 144.912 96.1845 144.912 96.09C144.912 95.9954 144.883 95.903 144.83 95.825" fill="#EB996E"/>
<path d="M141.265 93.2399C141.5 93.2399 141.46 94.7749 142.765 95.9099C144.07 97.0449 145.705 96.9099 145.715 97.1349C145.715 97.2299 145.34 97.4249 144.64 97.4249C143.735 97.4136 142.864 97.0824 142.18 96.4899C141.522 95.9222 141.112 95.1205 141.035 94.2549C141 93.6049 141.16 93.2299 141.265 93.2399Z" fill="#263238"/>
<path d="M141.13 76.1099C140.98 76.4899 139.565 76.2699 137.89 76.4249C136.215 76.5799 134.85 76.9949 134.64 76.6449C134.545 76.4749 134.79 76.1449 135.345 75.7599C136.084 75.3208 136.914 75.0557 137.77 74.9847C138.627 74.9137 139.489 75.0386 140.29 75.3499C140.895 75.6149 141.195 75.9249 141.13 76.1099Z" fill="#263238"/>
<path d="M154.195 77.6601C153.935 77.9801 152.965 77.6151 151.785 77.5701C150.605 77.5251 149.6 77.7251 149.38 77.3801C149.285 77.2151 149.45 76.8801 149.88 76.6001C150.477 76.25 151.164 76.0845 151.854 76.1245C152.545 76.1646 153.208 76.4083 153.76 76.8251C154.18 77.1701 154.31 77.5001 154.195 77.6601Z" fill="#263238"/>
<path d="M123.37 83.3098C121.362 84.541 119.6 86.1347 118.175 88.0098C116.535 90.0648 115.47 92.7248 115.88 95.3248C116.445 98.9298 119.57 101.49 122.475 103.7C124.145 103.94 125.39 102.095 125.65 100.425C125.91 98.7549 125.68 96.9498 126.47 95.4548C127.18 94.1148 128.58 93.2948 129.515 92.0998C131.255 89.8798 131.14 86.7548 130.715 83.9648C130.29 81.1748 130.715 76.9648 134.3 72.9648C134.3 72.9998 125.58 76.4048 123.37 83.3098Z" fill="#263238"/>
<path d="M120.28 92.5951C121.78 90.4301 121.4 87.2551 119.665 85.2501C117.93 83.2451 115.13 82.3751 112.49 82.6001C110.57 82.7651 108.625 83.5201 107.385 84.9951C106.145 86.4701 105.77 88.7451 106.8 90.3751C107.37 91.2751 108.36 92.1251 108.135 93.1701C107.91 94.2151 106.725 94.5501 105.885 95.1401C105.163 95.682 104.63 96.4369 104.361 97.2983C104.092 98.1596 104.1 99.0837 104.385 99.9401C104.696 100.785 105.215 101.538 105.894 102.13C106.573 102.722 107.39 103.133 108.27 103.325C110.049 103.684 111.897 103.351 113.44 102.395C113.44 104 115.165 105.225 116.76 105.09C118.355 104.955 119.71 103.79 120.565 102.435C121.713 100.469 122.259 98.2087 122.135 95.9351C122.01 93.6733 121.663 91.4292 121.1 89.2351" fill="#263238"/>
<path d="M122.92 104.19C122.835 104.151 122.756 104.1 122.685 104.04L122.035 103.57C121.48 103.155 120.675 102.57 119.74 101.73C118.627 100.78 117.643 99.6871 116.815 98.48C115.789 96.9847 115.196 95.2356 115.1 93.425C115.057 92.4851 115.205 91.5461 115.535 90.665C115.856 89.8487 116.332 89.1018 116.935 88.465C117.98 87.4437 119.133 86.54 120.375 85.77C121.19 85.2345 121.967 84.6431 122.7 84C122.955 83.765 123.145 83.575 123.27 83.44C123.33 83.3696 123.397 83.3059 123.47 83.25C123.47 83.25 123.42 83.335 123.305 83.475C123.141 83.6858 122.962 83.8847 122.77 84.07C122.059 84.7505 121.293 85.3709 120.48 85.925C119.266 86.71 118.137 87.6181 117.11 88.635C116.532 89.2508 116.079 89.9724 115.775 90.76C115.461 91.6102 115.32 92.5145 115.36 93.42C115.451 95.1815 116.017 96.8854 117 98.35C117.81 99.5471 118.767 100.637 119.85 101.595C120.765 102.425 121.55 103.05 122.085 103.49L122.7 103.99C122.78 104.049 122.854 104.116 122.92 104.19Z" fill="#455A64"/>
<path d="M115.57 91.1401C115.525 91.1651 115.265 90.6101 114.605 89.9101C113.76 88.9832 112.658 88.3289 111.44 88.0306C110.222 87.7323 108.943 87.8035 107.765 88.2351C106.86 88.5551 106.37 88.9201 106.345 88.8801C106.32 88.8401 106.445 88.7651 106.67 88.6051C106.994 88.3883 107.339 88.2056 107.7 88.0601C108.906 87.5685 110.237 87.4706 111.502 87.7804C112.767 88.0901 113.902 88.7918 114.745 89.7851C115 90.0797 115.221 90.4017 115.405 90.7451C115.482 90.8662 115.538 90.9998 115.57 91.1401Z" fill="#455A64"/>
<path d="M107.545 93.88C107.515 93.88 107.7 93.38 108.375 92.96C108.769 92.7267 109.203 92.5706 109.655 92.5C110.199 92.4162 110.75 92.3844 111.3 92.405C112.296 92.432 113.284 92.5883 114.24 92.87C114.642 92.9618 115.027 93.1171 115.38 93.33C114.978 93.2569 114.581 93.1618 114.19 93.045C113.238 92.8221 112.267 92.6948 111.29 92.665C110.325 92.5727 109.352 92.7293 108.465 93.12C108.121 93.3241 107.81 93.5805 107.545 93.88Z" fill="#455A64"/>
<path d="M105.825 102.05C105.825 102.005 106.54 102.02 107.665 101.8C109.123 101.517 110.507 100.935 111.73 100.09C112.94 99.2294 113.961 98.1301 114.73 96.86C115.32 95.885 115.555 95.205 115.6 95.225C115.578 95.3972 115.533 95.5655 115.465 95.725C115.305 96.1541 115.113 96.5703 114.89 96.97C114.151 98.2993 113.119 99.443 111.872 100.314C110.626 101.186 109.197 101.762 107.695 102C107.243 102.071 106.787 102.106 106.33 102.105C106.159 102.116 105.989 102.098 105.825 102.05Z" fill="#455A64"/>
<path d="M116.07 90.9999C116.07 90.9749 116.375 91.2699 117.005 91.6149C117.907 92.0851 118.919 92.306 119.935 92.2549C120.631 92.2304 121.319 92.0988 121.975 91.8649C122.727 91.5831 123.429 91.183 124.055 90.6799C125.468 89.4894 126.593 87.9935 127.345 86.3049C128.085 84.6041 128.72 82.8591 129.245 81.0799C129.689 79.6198 130.244 78.1957 130.905 76.8199C131.354 75.8917 131.913 75.0205 132.57 74.2249C132.805 73.9499 133 73.7249 133.14 73.6099C133.207 73.5398 133.281 73.4762 133.36 73.4199C133.36 73.4199 133.09 73.7199 132.65 74.2899C132.031 75.1009 131.502 75.9759 131.07 76.8999C130.436 78.2779 129.903 79.7 129.475 81.1549C128.96 82.9482 128.327 84.7053 127.58 86.4149C126.814 88.142 125.657 89.6672 124.2 90.8699C123.553 91.3822 122.827 91.7858 122.05 92.0649C121.371 92.3012 120.659 92.4277 119.94 92.4399C118.89 92.4798 117.851 92.2233 116.94 91.6999C116.796 91.6233 116.661 91.5329 116.535 91.4299C116.437 91.3632 116.345 91.2879 116.26 91.2049C116.19 91.1427 116.127 91.074 116.07 90.9999Z" fill="#455A64"/>
<path d="M130.745 81.71C130.77 81.71 130.565 82.01 130.335 82.595C130.039 83.43 129.871 84.3048 129.835 85.19C129.809 86.5208 129.66 87.8464 129.39 89.15C128.946 90.7462 128.033 92.1727 126.77 93.245C125.52 94.3381 123.958 95.0113 122.305 95.17C120.964 95.2861 119.615 95.0787 118.37 94.565C117.535 94.2246 116.764 93.7444 116.09 93.145C115.913 92.9895 115.746 92.8224 115.59 92.645C115.529 92.5846 115.476 92.5175 115.43 92.445C115.455 92.445 115.68 92.695 116.17 93.085C116.856 93.6476 117.627 94.0966 118.455 94.415C119.677 94.8916 120.994 95.0749 122.3 94.95C123.899 94.784 125.407 94.1253 126.615 93.065C127.841 92.0271 128.732 90.649 129.175 89.105C129.454 87.8184 129.621 86.5103 129.675 85.195C129.73 84.2957 129.93 83.4111 130.265 82.575C130.365 82.3514 130.482 82.1358 130.615 81.93C130.65 81.8519 130.694 81.778 130.745 81.71Z" fill="#455A64"/>
<path d="M160.375 94.6652C160.375 94.6652 160.545 94.5102 160.81 94.2052C161.191 93.774 161.487 93.2754 161.685 92.7352C161.979 91.9365 162.1 91.0843 162.04 90.2352C161.951 89.1895 161.66 88.1709 161.185 87.2352C160.185 85.2352 158.835 83.7002 157.94 82.5302C157.584 82.0658 157.26 81.578 156.97 81.0702C156.853 80.8893 156.759 80.6945 156.69 80.4902C156.829 80.6545 156.951 80.8321 157.055 81.0202C157.28 81.3602 157.625 81.8452 158.085 82.4152C159.005 83.5502 160.41 85.0752 161.42 87.1202C161.909 88.0794 162.201 89.1265 162.28 90.2002C162.332 91.0807 162.189 91.9619 161.86 92.7802C161.629 93.3328 161.289 93.8329 160.86 94.2502C160.746 94.3608 160.624 94.4627 160.495 94.5552C160.43 94.6452 160.38 94.6752 160.375 94.6652Z" fill="#455A64"/>
<path d="M158.895 97.5949C159.391 97.0611 159.807 96.4581 160.13 95.8049C160.453 95.0878 160.623 94.3113 160.63 93.5249C160.629 92.5601 160.432 91.6056 160.05 90.7199C159.652 89.8305 159.201 88.9656 158.7 88.1299C158.265 87.3399 157.89 86.6299 157.585 86.0049C157.28 85.3799 157.05 84.8949 156.9 84.5449C156.808 84.3678 156.739 84.1796 156.695 83.9849C156.808 84.1422 156.907 84.3096 156.99 84.4849L157.75 85.9049C158.075 86.5049 158.465 87.2149 158.91 87.9999C159.428 88.8359 159.889 89.7063 160.29 90.6049C160.686 91.5233 160.883 92.5149 160.87 93.5149C160.85 94.331 160.658 95.1337 160.305 95.8699C160.063 96.3606 159.744 96.8096 159.36 97.1999C159.255 97.304 159.145 97.4025 159.03 97.4949C158.945 97.5699 158.9 97.5999 158.895 97.5949Z" fill="#455A64"/>
<path d="M122.88 84.635C126.305 78.79 131.095 73.355 137.685 71.78C140.902 70.9853 144.247 70.8579 147.515 71.4056C150.782 71.9534 153.903 73.1648 156.685 74.965V63.44L148.46 36.89L142.055 33.5L126.915 42.16L123 74.095L122.88 84.635Z" fill="#FFCB45"/>
<g opacity="0.7">
<path d="M122.88 84.635C126.305 78.79 131.095 73.355 137.685 71.78C140.902 70.9853 144.247 70.8579 147.515 71.4056C150.782 71.9534 153.903 73.1648 156.685 74.965V63.44L148.46 36.89L142.055 33.5L126.915 42.16L123 74.095L122.88 84.635Z" fill="white"/>
</g>
<path d="M156.37 63.86C156.243 63.8158 156.121 63.7588 156.005 63.69C155.77 63.575 155.44 63.375 155.005 63.19C153.745 62.5759 152.429 62.0837 151.075 61.72C149.069 61.1769 147.003 60.8797 144.925 60.835C143.699 60.8069 142.471 60.8519 141.25 60.97C139.941 61.0677 138.645 61.3041 137.385 61.675C134.968 62.4709 132.68 63.6163 130.595 65.075C128.881 66.2476 127.329 67.6413 125.98 69.22C125.075 70.2948 124.295 71.469 123.655 72.72C123.465 73.155 123.31 73.5 123.19 73.76C123.145 73.8859 123.086 74.0066 123.015 74.12C123.046 73.9911 123.09 73.8656 123.145 73.745C123.24 73.5 123.37 73.135 123.565 72.675C124.175 71.3995 124.938 70.2025 125.835 69.11C127.181 67.5011 128.736 66.0801 130.46 64.885C132.559 63.4 134.868 62.2372 137.31 61.435C138.588 61.0612 139.902 60.8232 141.23 60.725C142.46 60.6092 143.696 60.5691 144.93 60.605C147.026 60.6618 149.107 60.9793 151.125 61.55C152.484 61.9335 153.799 62.4562 155.05 63.11C155.5 63.325 155.825 63.54 156.05 63.67C156.162 63.7249 156.269 63.7884 156.37 63.86Z" fill="#263238"/>
<path d="M146.365 60.7748C146.295 60.7748 145.22 54.7198 143.97 47.2248C142.72 39.7298 141.76 33.6448 141.83 33.6348C141.9 33.6248 142.975 39.6898 144.225 47.1848C145.475 54.6798 146.435 60.7648 146.365 60.7748Z" fill="#263238"/>
<path d="M136.33 61.87C136.26 61.87 136.37 56.115 136.585 49.015C136.8 41.915 137.025 36.165 137.085 36.165C137.145 36.165 137.04 41.925 136.83 49.025C136.62 56.125 136.405 61.875 136.33 61.87Z" fill="#263238"/>
<path d="M127.79 66.6548C127.778 66.5635 127.778 66.4711 127.79 66.3798C127.79 66.1698 127.79 65.9098 127.82 65.5948C127.855 64.9148 127.92 63.9248 128.015 62.7098C128.205 60.2798 128.515 56.9198 129.015 53.2098C129.515 49.4998 130.015 46.2098 130.41 43.7798C130.62 42.5748 130.8 41.6048 130.94 40.9348C131.005 40.6248 131.06 40.3748 131.1 40.1698C131.112 40.0783 131.137 39.989 131.175 39.9048C131.186 39.9961 131.186 40.0885 131.175 40.1798C131.14 40.3848 131.105 40.6398 131.06 40.9548C130.95 41.6648 130.795 42.6298 130.615 43.8098C130.24 46.2198 129.76 49.5548 129.295 53.2448C128.83 56.9348 128.47 60.2848 128.235 62.7098C128.12 63.8998 128.025 64.8698 127.96 65.5848C127.925 65.9048 127.9 66.1598 127.875 66.3698C127.86 66.4684 127.832 66.5644 127.79 66.6548Z" fill="#263238"/>
<path d="M147.825 62.7202C147.866 63.1058 147.866 63.4946 147.825 63.8802C147.765 64.6902 147.695 65.6252 147.62 66.6602C147.545 67.6952 147.47 68.6302 147.41 69.4402C147.403 69.8276 147.354 70.2132 147.265 70.5902C147.204 70.2066 147.191 69.8171 147.225 69.4302C147.225 68.7152 147.28 67.7302 147.36 66.6402C147.44 65.5502 147.545 64.5702 147.64 63.8602C147.657 63.4743 147.719 63.0918 147.825 62.7202Z" fill="#263238"/>
<path d="M100.11 176.425C99.4802 175.505 97.7852 174.685 96.6752 174.565C92.8352 174.145 89.3352 175.8 86.3052 178.2L85.7102 179.285C84.0802 180.555 82.3802 182.005 81.8752 184.01C81.4134 186.099 81.1804 188.231 81.1802 190.37C81.2277 191.506 81.6882 192.585 82.4752 193.405C83.1996 194.207 84.207 194.697 85.2852 194.77C87.3239 194.929 89.3633 194.472 91.1402 193.46C92.9053 192.444 94.4627 191.104 95.7302 189.51C98.0965 186.617 99.7049 183.18 100.41 179.51C100.61 178.5 100.71 177.31 100.11 176.425Z" fill="#FFCB45"/>
<g opacity="0.4">
<path d="M100.11 176.425C99.4802 175.505 97.7852 174.685 96.6752 174.565C92.8352 174.145 89.3352 175.8 86.3052 178.2L85.7102 179.285C84.0802 180.555 82.3802 182.005 81.8752 184.01C81.4134 186.099 81.1804 188.231 81.1802 190.37C81.2277 191.506 81.6882 192.585 82.4752 193.405C83.1996 194.207 84.207 194.697 85.2852 194.77C87.3239 194.929 89.3633 194.472 91.1402 193.46C92.9053 192.444 94.4627 191.104 95.7302 189.51C98.0965 186.617 99.7049 183.18 100.41 179.51C100.61 178.5 100.71 177.31 100.11 176.425Z" fill="black"/>
</g>
<path d="M99.6949 119.905C99.0899 120.105 69.1249 162.575 68.3199 165.405C67.5149 168.235 63.1299 174.96 69.3199 181.275C73.1589 185.163 77.2512 188.793 81.5699 192.14C80.1799 181.435 90.7149 172.805 98.0699 175.045L92.4449 171.23L105.3 154.155" fill="#FFCB45"/>
<path d="M161.96 128.78C161.96 128.78 166.675 134.675 167.85 138.49C168.85 141.75 174.2 156.835 174.2 156.835L183.935 180.96C183.935 180.96 182.435 183.09 182.1 184.895C181.96 185.615 180.725 196.7 177.775 201.395L162.16 194.395L160.19 180.42L157.5 168.375L160.28 135.95L161.96 128.78Z" fill="#FFCB45"/>
<path d="M118.135 113.775C118.135 113.775 122.135 110.085 123.245 109.565C123.245 109.565 124.515 113.9 128.245 115.95C131.975 118 134.38 120.21 134.38 120.505V125.88C134.38 125.88 119.095 121.705 118.135 113.775Z" fill="#FFCB45"/>
<path d="M120.69 141.12L150.39 139.325L149 122.36L147.725 119.5L145.725 115.89C145.622 117.111 145.13 118.266 144.32 119.185C142.684 120.844 140.577 121.958 138.285 122.375L137.7 125.875L122.65 119.66C122.65 119.66 120.69 140.16 120.69 140.63" fill="#FFCB45"/>
<path d="M138.275 122.36C138.282 122.436 138.282 122.513 138.275 122.59C138.25 122.755 138.215 122.98 138.175 123.265C138.078 123.875 137.941 124.75 137.765 125.89V125.935H137.715L125.5 126.31L123.5 126.365L122.455 126.395C122.117 126.385 121.779 126.429 121.455 126.525C121.127 126.639 120.829 126.826 120.584 127.072C120.339 127.318 120.153 127.617 120.04 127.945C119.93 128.289 119.891 128.651 119.925 129.01C119.925 129.39 119.925 129.77 119.925 130.15C119.99 133.21 120.06 136.45 120.13 139.8C120.36 149.19 120.505 157.695 120.46 163.85C120.46 166.93 120.41 169.42 120.37 171.14C120.345 171.985 120.33 172.64 120.315 173.14C120.315 173.355 120.315 173.525 120.315 173.64C120.321 173.698 120.321 173.757 120.315 173.815C120.307 173.757 120.307 173.698 120.315 173.64C120.315 173.51 120.315 173.34 120.315 173.14C120.315 172.67 120.315 172.005 120.315 171.14C120.315 169.405 120.315 166.92 120.315 163.855C120.315 157.7 120.14 149.2 119.91 139.81C119.845 136.46 119.78 133.22 119.715 130.16V129.02C119.685 128.633 119.731 128.244 119.85 127.875C119.974 127.512 120.18 127.181 120.451 126.909C120.722 126.637 121.052 126.431 121.415 126.305C121.767 126.202 122.133 126.156 122.5 126.17L123.54 126.145L125.54 126.095L137.76 125.825L137.705 125.875C137.905 124.738 138.058 123.867 138.165 123.26L138.295 122.59C138.283 122.514 138.276 122.437 138.275 122.36Z" fill="#263238"/>
<path d="M123.375 133.7C124.076 133.7 124.645 133.132 124.645 132.43C124.645 131.729 124.076 131.16 123.375 131.16C122.674 131.16 122.105 131.729 122.105 132.43C122.105 133.132 122.674 133.7 123.375 133.7Z" fill="#263238"/>
<path d="M130.5 131.065C130.5 131.145 129.07 131.33 127.33 131.735C125.59 132.14 124.215 132.6 124.19 132.53C125.162 132.036 126.199 131.682 127.27 131.48C128.322 131.194 129.409 131.055 130.5 131.065Z" fill="#263238"/>
<path d="M128.345 133.59C127.597 133.475 126.856 133.32 126.125 133.125C125.377 133.011 124.636 132.856 123.905 132.66C125.436 132.626 126.956 132.944 128.345 133.59Z" fill="#263238"/>
<path d="M123.375 148.06C124.076 148.06 124.645 147.491 124.645 146.79C124.645 146.089 124.076 145.52 123.375 145.52C122.674 145.52 122.105 146.089 122.105 146.79C122.105 147.491 122.674 148.06 123.375 148.06Z" fill="#263238"/>
<path d="M130.5 145.43C130.5 145.505 129.07 145.69 127.33 146.095C125.59 146.5 124.215 146.96 124.19 146.89C125.161 146.396 126.199 146.044 127.27 145.845C128.322 145.556 129.409 145.417 130.5 145.43Z" fill="#263238"/>
<path d="M128.345 147.95C127.597 147.835 126.856 147.68 126.125 147.485C125.377 147.371 124.636 147.216 123.905 147.02C125.436 146.986 126.956 147.304 128.345 147.95Z" fill="#263238"/>
<path d="M123.375 162.425C124.076 162.425 124.645 161.856 124.645 161.155C124.645 160.453 124.076 159.885 123.375 159.885C122.674 159.885 122.105 160.453 122.105 161.155C122.105 161.856 122.674 162.425 123.375 162.425Z" fill="#263238"/>
<path d="M130.5 159.79C130.5 159.865 129.07 160.05 127.33 160.455C125.59 160.86 124.215 161.32 124.19 161.25C125.161 160.756 126.199 160.404 127.27 160.205C128.322 159.916 129.409 159.777 130.5 159.79Z" fill="#263238"/>
<path d="M128.345 162.31C127.597 162.195 126.856 162.04 126.125 161.845C125.377 161.731 124.636 161.576 123.905 161.38C124.67 161.32 125.439 161.391 126.18 161.59C126.938 161.703 127.67 161.946 128.345 162.31Z" fill="#263238"/>
<path d="M103.5 158C103.51 157.876 103.534 157.754 103.57 157.635C103.63 157.375 103.715 157.035 103.82 156.61C104.04 155.715 104.37 154.43 104.745 152.835C105.12 151.24 105.535 149.335 105.86 147.185C106.223 144.87 106.377 142.527 106.32 140.185C106.239 137.84 105.838 135.517 105.13 133.28C104.556 131.453 103.724 129.717 102.66 128.125C101.944 127.051 101.105 126.065 100.16 125.185C99.8401 124.86 99.5451 124.655 99.3701 124.49C99.2708 124.415 99.1802 124.33 99.1001 124.235C99.2052 124.297 99.3055 124.367 99.4001 124.445C99.5901 124.6 99.9001 124.795 100.23 125.11C101.208 125.97 102.077 126.947 102.815 128.02C103.911 129.616 104.77 131.362 105.365 133.205C106.091 135.461 106.502 137.806 106.585 140.175C106.641 142.539 106.474 144.903 106.085 147.235C105.75 149.385 105.31 151.295 104.915 152.89C104.52 154.485 104.16 155.765 103.915 156.65C103.795 157.07 103.695 157.41 103.62 157.65C103.588 157.769 103.548 157.886 103.5 158Z" fill="#263238"/>
<path d="M103 157.57C102.924 157.354 102.867 157.131 102.83 156.905C102.735 156.475 102.625 155.845 102.51 155.06C102.22 153.018 102.088 150.957 102.115 148.895C102.145 146.832 102.335 144.774 102.685 142.74C102.82 141.965 102.95 141.335 103.06 140.91C103.1 140.683 103.164 140.46 103.25 140.245C103.241 140.476 103.211 140.705 103.16 140.93C103.08 141.36 102.98 141.99 102.87 142.77C102.571 144.801 102.404 146.848 102.37 148.9C102.346 150.95 102.453 152.999 102.69 155.035C102.78 155.82 102.86 156.45 102.925 156.885C102.976 157.11 103.001 157.34 103 157.57Z" fill="#263238"/>
<path d="M74.5747 170.6C74.828 170.516 75.087 170.451 75.3497 170.405C76.0418 170.203 76.7118 169.931 77.3497 169.595C78.1647 169.175 79.0897 168.595 80.1447 167.96C81.2721 167.23 82.5222 166.71 83.8347 166.425C85.18 166.208 86.5595 166.434 87.7647 167.07C88.7301 167.584 89.6215 168.227 90.4147 168.98C90.9491 169.477 91.4501 170.008 91.9147 170.57C92.1006 170.77 92.2679 170.985 92.4147 171.215C92.215 171.037 92.0279 170.844 91.8547 170.64C91.3604 170.114 90.8397 169.613 90.2947 169.14C89.4975 168.419 88.6121 167.803 87.6597 167.305C86.4968 166.704 85.1714 166.494 83.8797 166.705C82.5954 166.987 81.3714 167.495 80.2647 168.205C79.2097 168.815 78.2647 169.39 77.4297 169.795C76.7716 170.123 76.0767 170.372 75.3597 170.535C75.1632 170.576 74.9645 170.606 74.7647 170.625C74.7006 170.624 74.6368 170.616 74.5747 170.6Z" fill="#263238"/>
<path d="M84.9301 160.195C85.0959 160.235 85.2556 160.298 85.4051 160.38C85.5907 160.453 85.7697 160.541 85.9401 160.645C86.1735 160.77 86.4005 160.907 86.6201 161.055C87.1975 161.434 87.7382 161.865 88.2351 162.345C89.4581 163.522 90.4086 164.952 91.0201 166.535C91.2712 167.182 91.4603 167.852 91.5851 168.535C91.637 168.794 91.6754 169.056 91.7001 169.32C91.7263 169.517 91.7396 169.716 91.7401 169.915C91.765 170.081 91.765 170.249 91.7401 170.415C91.6901 170.415 91.6701 169.69 91.4201 168.56C91.2712 167.899 91.0689 167.252 90.8151 166.625C90.4914 165.862 90.1016 165.129 89.6501 164.435C89.1868 163.75 88.6612 163.109 88.0801 162.52C87.6005 162.041 87.082 161.603 86.5301 161.21C85.5701 160.535 84.9101 160.24 84.9301 160.195Z" fill="#263238"/>
<g opacity="0.4">
<path d="M91.5 169.79C90.5929 167.725 89.1319 165.95 87.2787 164.664C85.4255 163.377 83.2524 162.628 81 162.5C80.393 162.442 79.781 162.536 79.22 162.775C78.9427 162.901 78.7085 163.105 78.5466 163.363C78.3848 163.621 78.3025 163.921 78.31 164.225C78.3858 164.511 78.4327 164.805 78.45 165.1C78.375 165.765 77.55 166.005 76.905 166.19C75.6469 166.549 74.5264 167.279 73.69 168.285C73.255 168.785 72.905 169.59 73.32 170.13C73.665 170.57 74.32 170.57 74.875 170.47C76.935 170.11 78.77 169 80.65 168.09C82.53 167.18 84.65 166.445 86.69 166.905C88.945 167.405 90.62 169.255 92.135 171" fill="black"/>
</g>
<path d="M157.5 168.375C157.444 168.454 157.383 168.527 157.315 168.595L156.74 169.185C156.495 169.44 156.185 169.745 155.81 170.085C155.435 170.425 155.02 170.83 154.53 171.235C153.395 172.204 152.212 173.115 150.985 173.965C147.973 176.053 144.713 177.758 141.28 179.04C139.695 179.62 138.245 180.075 137.01 180.39C136.395 180.56 135.83 180.675 135.335 180.785C134.84 180.895 134.415 180.98 134.06 181.035L133.255 181.165C133.162 181.188 133.066 181.198 132.97 181.195C133.057 181.156 133.15 181.129 133.245 181.115L134.045 180.935C134.39 180.865 134.815 180.77 135.305 180.645C135.795 180.52 136.355 180.395 136.96 180.21C138.185 179.875 139.625 179.405 141.195 178.815C144.598 177.517 147.837 175.824 150.845 173.77C152.23 172.82 153.435 171.905 154.41 171.09C154.91 170.7 155.33 170.31 155.71 169.98C156.09 169.65 156.415 169.355 156.67 169.11L157.275 168.555C157.342 168.486 157.418 168.426 157.5 168.375Z" fill="#263238"/>
<path d="M162.16 135.5C162.16 135.613 162.148 135.725 162.125 135.835C162.09 136.08 162.04 136.4 161.98 136.795L161.43 140.295C160.97 143.26 160.365 147.37 159.745 151.91C159.125 156.45 158.585 160.545 158.18 163.55L157.71 167.075C157.65 167.47 157.605 167.79 157.57 168.035C157.559 168.147 157.538 168.257 157.505 168.365C157.492 168.252 157.492 168.138 157.505 168.025C157.525 167.778 157.555 167.458 157.595 167.065C157.69 166.195 157.82 164.995 157.985 163.525C158.33 160.525 158.845 156.42 159.485 151.875C160.125 147.33 160.74 143.225 161.245 140.265C161.505 138.765 161.715 137.585 161.885 136.765C161.96 136.375 162.025 136.06 162.075 135.815C162.09 135.707 162.119 135.601 162.16 135.5Z" fill="#263238"/>
<path d="M145.24 184.93C145.307 184.752 145.398 184.584 145.51 184.43C145.7 184.135 145.98 183.71 146.335 183.185C147.05 182.145 148.065 180.725 149.23 179.185C150.395 177.645 151.495 176.295 152.315 175.335C152.72 174.835 153.055 174.47 153.315 174.205C153.575 173.94 153.69 173.805 153.705 173.82C153.619 173.981 153.515 174.132 153.395 174.27L152.455 175.5C151.68 176.5 150.605 177.86 149.455 179.39C148.305 180.92 147.255 182.32 146.505 183.335L145.595 184.5C145.495 184.657 145.375 184.802 145.24 184.93Z" fill="#263238"/>
<path d="M177.425 174.5C177.152 174.407 176.885 174.297 176.625 174.17C176.125 173.95 175.375 173.635 174.44 173.31C172.009 172.433 169.439 172.001 166.855 172.035C166.129 172.051 165.413 172.198 164.74 172.47C164.12 172.738 163.555 173.12 163.075 173.595C162.262 174.428 161.624 175.416 161.2 176.5C160.899 177.225 160.636 177.964 160.41 178.715C160.336 178.995 160.241 179.269 160.125 179.535C160.166 179.248 160.228 178.964 160.31 178.685C160.505 177.92 160.745 177.167 161.03 176.43C161.446 175.321 162.086 174.31 162.91 173.46C163.407 172.958 163.994 172.554 164.64 172.27C165.339 171.985 166.085 171.829 166.84 171.81C169.456 171.761 172.057 172.218 174.5 173.155C175.24 173.431 175.964 173.746 176.67 174.1C176.92 174.22 177.11 174.33 177.24 174.4C177.306 174.425 177.368 174.458 177.425 174.5Z" fill="#263238"/>
<path d="M173.685 166.67C173.685 166.725 172.9 166.7 171.685 166.915C170.964 167.042 170.255 167.229 169.565 167.475C167.875 168.085 166.327 169.033 165.015 170.26C164.481 170.762 163.991 171.309 163.55 171.895C162.8 172.895 162.465 173.605 162.415 173.58C162.467 173.406 162.539 173.238 162.63 173.08C162.722 172.884 162.825 172.694 162.94 172.51C163.081 172.262 163.235 172.022 163.4 171.79C163.83 171.18 164.315 170.611 164.85 170.09C166.166 168.813 167.749 167.845 169.485 167.255C170.191 167.02 170.918 166.853 171.655 166.755C171.97 166.7 172.26 166.69 172.51 166.67C172.725 166.658 172.94 166.658 173.155 166.67C173.331 166.652 173.509 166.652 173.685 166.67Z" fill="#263238"/>
<path d="M177.705 198.355C177.462 196.721 176.812 195.174 175.815 193.856C174.818 192.539 173.506 191.493 172 190.815C169.615 189.75 166.325 189.505 164.06 190.815C161.795 192.125 158.765 195.345 159.38 197.88L164.575 206.605C165.913 207.575 167.511 208.121 169.162 208.174C170.814 208.226 172.443 207.782 173.84 206.9C175.207 205.968 176.292 204.678 176.973 203.171C177.655 201.663 177.908 199.997 177.705 198.355Z" fill="#FFCB45"/>
<g opacity="0.4">
<path d="M177.705 198.355C177.462 196.721 176.812 195.174 175.815 193.856C174.818 192.539 173.506 191.493 172 190.815C169.615 189.75 166.325 189.505 164.06 190.815C161.795 192.125 158.765 195.345 159.38 197.88L164.575 206.605C165.913 207.575 167.511 208.121 169.162 208.174C170.814 208.226 172.443 207.782 173.84 206.9C175.207 205.968 176.292 204.678 176.973 203.171C177.655 201.663 177.908 199.997 177.705 198.355Z" fill="black"/>
</g>
<path d="M176.085 204.715C176.085 204.715 176.27 204.365 176.585 203.745C177.021 202.85 177.322 201.897 177.48 200.915C177.707 199.457 177.577 197.966 177.1 196.57C176.957 196.168 176.79 195.776 176.6 195.395C176.401 195 176.175 194.619 175.925 194.255C174.887 192.7 173.409 191.49 171.68 190.78C169.472 189.944 167.034 189.944 164.825 190.78C163.89 191.117 163.007 191.587 162.205 192.175C161.64 192.6 161.35 192.865 161.33 192.845C161.391 192.771 161.457 192.702 161.53 192.64C161.722 192.446 161.926 192.264 162.14 192.095C162.93 191.462 163.814 190.956 164.76 190.595C167.007 189.709 169.502 189.693 171.76 190.55C172.647 190.905 173.475 191.394 174.215 192C174.953 192.607 175.599 193.32 176.13 194.115C176.382 194.492 176.611 194.885 176.815 195.29C177.008 195.682 177.175 196.086 177.315 196.5C177.796 197.932 177.911 199.462 177.65 200.95C177.472 201.946 177.134 202.906 176.65 203.795C176.48 204.105 176.315 204.335 176.215 204.49C176.182 204.57 176.139 204.646 176.085 204.715Z" fill="#263238"/>
<path d="M161.8 192.445C161.725 192.445 161.12 189.035 160.44 184.8C159.76 180.565 159.27 177.125 159.34 177.11C159.41 177.095 160.02 180.525 160.7 184.76C161.38 188.995 161.87 192.435 161.8 192.445Z" fill="#263238"/>
<g opacity="0.4">
<path d="M158.41 172.46L161.065 172.275C162.824 169.574 165.579 167.678 168.73 167C169.455 166.81 170.214 166.795 170.945 166.955C171.31 167.039 171.646 167.217 171.921 167.47C172.196 167.723 172.401 168.044 172.515 168.4C172.607 168.762 172.554 169.145 172.367 169.468C172.181 169.792 171.875 170.029 171.515 170.13C172.253 170.323 172.942 170.668 173.54 171.142C174.137 171.617 174.629 172.21 174.985 172.885C175.135 173.17 175.245 173.56 175.02 173.79C174.849 173.919 174.633 173.977 174.42 173.95C173.195 173.95 171.98 173.675 170.755 173.62C169.529 173.495 168.296 173.785 167.255 174.445C166.255 175.16 165.715 176.325 165.255 177.445C163.568 181.484 162.321 185.693 161.535 190C160.92 187.565 160.865 185 160.42 182.69C159.785 179.415 159.17 176.065 158.42 172.47" fill="black"/>
</g>
<g opacity="0.4">
<path d="M100.825 194.54C104.13 198.065 108.59 199.715 113.365 200.495C118.14 201.275 123.015 200.995 127.865 200.725C129.055 200.655 130.465 200.45 130.985 199.375C131.355 198.61 131.1 197.705 130.805 196.915C128.675 191.28 124.465 186.725 120.35 182.33C118.85 180.72 117.24 179.05 115.135 178.4C112.82 177.69 110.19 178.315 107.995 177.295C105.355 176.07 104.28 172.96 103.465 170.165L101.785 164.415C102.155 170.68 102.09 175.715 102.09 175.715C102.09 175.715 100.36 187.295 100.59 189.92C100.82 192.545 100.825 194.54 100.825 194.54Z" fill="black"/>
</g>
<path d="M133.74 123.06C133.517 123.036 133.297 122.987 133.085 122.915C132.665 122.81 132.085 122.625 131.335 122.365C129.434 121.683 127.61 120.801 125.895 119.735C124.178 118.668 122.578 117.425 121.12 116.025C120.565 115.485 120.12 115.025 119.855 114.7C119.695 114.542 119.554 114.366 119.435 114.175C119.614 114.312 119.782 114.464 119.935 114.63C120.235 114.94 120.685 115.37 121.255 115.89C124.217 118.604 127.659 120.742 131.405 122.195C132.12 122.475 132.71 122.695 133.12 122.82C133.333 122.882 133.541 122.962 133.74 123.06Z" fill="#263238"/>
<path d="M147.68 120.285C147.639 120.419 147.574 120.544 147.49 120.655C147.299 120.981 147.083 121.292 146.845 121.585C145.269 123.546 143.104 124.948 140.67 125.585C140.306 125.685 139.935 125.757 139.56 125.8C139.424 125.83 139.284 125.839 139.145 125.825C139.145 125.78 139.72 125.685 140.62 125.41C141.792 125.044 142.909 124.521 143.94 123.855C144.966 123.183 145.894 122.374 146.7 121.45C147.32 120.755 147.64 120.26 147.68 120.285Z" fill="#263238"/>
<path d="M150 123.37C149.235 125.33 147.788 126.947 145.925 127.925C146.713 127.271 147.466 126.575 148.18 125.84C148.829 125.049 149.437 124.225 150 123.37Z" fill="#263238"/>
<path d="M123.77 182.825L124.08 182.76C125.19 182.545 128.87 181.875 129.465 182.47C130.16 183.17 135.145 188.065 135.145 188.065C135.145 188.065 134.185 189.64 131.035 188.065C127.885 186.49 123.77 182.825 123.77 182.825Z" fill="#FFBE9D"/>
<path d="M116.7 172.88C117.242 172.52 117.901 172.382 118.542 172.496C119.183 172.609 119.755 172.966 120.14 173.49L135.335 193.645L131.44 196.5L116.095 176.54C115.882 176.265 115.727 175.948 115.642 175.611C115.557 175.273 115.542 174.922 115.599 174.578C115.656 174.234 115.783 173.906 115.972 173.614C116.162 173.322 116.409 173.072 116.7 172.88Z" fill="#263238"/>
<path d="M81.9551 186.375C81.9551 186.375 100 189.305 102.5 189.5C105 189.695 111.845 196.955 113.83 197.65C115.815 198.345 121.19 198.245 121.19 198.245C121.19 198.245 130.93 198.745 131.23 198.245C131.53 197.745 132.125 197.845 131.23 195.955C130.675 194.797 130.005 193.698 129.23 192.675C129.23 192.675 131.73 195.755 132.415 195.855C133.1 195.955 134.6 196.135 134.5 194.805C134.4 193.475 131.815 188.005 131.815 188.005C131.815 188.005 130.725 185.45 128.735 184.885C126.745 184.32 118.095 180.15 118.095 180.15H108.845L98.0551 175.02C98.0551 175.02 91.5251 172.92 85.3101 179.775C84.0995 181.137 83.1791 182.731 82.6051 184.46L81.9551 186.375Z" fill="#FFBE9D"/>
<path d="M133.55 192.125C133.437 191.962 133.347 191.786 133.28 191.6C133.105 191.2 132.89 190.71 132.64 190.13C132.39 189.55 132.055 188.75 131.715 187.94C131.434 187.032 130.885 186.23 130.14 185.64C129.733 185.36 129.299 185.122 128.845 184.93L127.57 184.36C126.75 184 126.01 183.69 125.39 183.43L123.89 182.815C123.705 182.75 123.527 182.667 123.36 182.565C123.555 182.596 123.746 182.648 123.93 182.72C124.285 182.84 124.805 183.02 125.43 183.255C126.055 183.49 126.815 183.79 127.64 184.14L128.925 184.7C129.399 184.893 129.85 185.138 130.27 185.43C131.055 186.052 131.629 186.9 131.915 187.86C132.24 188.675 132.53 189.42 132.785 190.065C133.04 190.71 133.195 191.155 133.35 191.565C133.436 191.744 133.503 191.932 133.55 192.125Z" fill="#EB996E"/>
<path d="M124.5 187.115C124.848 187.321 125.169 187.569 125.455 187.855C126.171 188.505 126.839 189.205 127.455 189.95C128.082 190.694 128.654 191.483 129.165 192.31C129.398 192.639 129.586 192.997 129.725 193.375C129.459 193.075 129.22 192.752 129.01 192.41C128.585 191.805 127.98 190.98 127.255 190.115C126.53 189.25 125.83 188.515 125.305 187.99C125.011 187.723 124.742 187.43 124.5 187.115Z" fill="#EB996E"/>
<path d="M129.635 198.395C129.5 198.368 129.371 198.318 129.255 198.245C128.923 198.078 128.605 197.884 128.305 197.665C127.334 196.921 126.45 196.071 125.67 195.13C124.735 194.055 123.9 193.075 123.31 192.355C122.969 191.983 122.66 191.583 122.385 191.16C122.77 191.486 123.124 191.846 123.445 192.235C124.075 192.925 124.945 193.885 125.865 194.955C126.637 195.882 127.491 196.739 128.415 197.515C129.14 198.095 129.655 198.36 129.635 198.395Z" fill="#EB996E"/>
<path d="M124.275 198.385C123.945 198.274 123.632 198.117 123.345 197.92C122.625 197.494 121.931 197.026 121.265 196.52C120.601 196.015 119.964 195.476 119.355 194.905C119.086 194.682 118.846 194.427 118.64 194.145C118.695 194.085 119.88 195.145 121.425 196.315C122.97 197.485 124.315 198.32 124.275 198.385Z" fill="#EB996E"/>
<path d="M153.88 205.885C153.88 205.885 152.295 203.435 152.075 202.56C151.855 201.685 152.075 197.52 149.155 198.175V198.5C149.23 198.855 149.155 207.325 149.155 207.325L153.88 205.885Z" fill="#FFBE9D"/>
<path d="M116.465 210.32C116.465 210.32 113.77 235.19 142.89 234.465C166.63 233.875 166.215 210.735 166.215 210.735L116.465 210.32Z" fill="#FFCB45"/>
<path d="M140.905 217.115C155.891 217.115 168.04 214.178 168.04 210.555C168.04 206.932 155.891 203.995 140.905 203.995C125.919 203.995 113.77 206.932 113.77 210.555C113.77 214.178 125.919 217.115 140.905 217.115Z" fill="#FFCB45"/>
<path opacity="0.4" d="M141.31 214.465C155.064 214.465 166.215 212.609 166.215 210.32C166.215 208.031 155.064 206.175 141.31 206.175C127.555 206.175 116.405 208.031 116.405 210.32C116.405 212.609 127.555 214.465 141.31 214.465Z" fill="black"/>
<path d="M167.12 212.43L167 212.5L166.665 212.71C166.37 212.895 165.92 213.15 165.33 213.45C163.65 214.291 161.887 214.952 160.07 215.425C157.374 216.105 154.639 216.616 151.88 216.955C148.497 217.336 145.094 217.503 141.69 217.455C138.075 217.425 134.625 217.305 131.5 217.03C128.728 216.801 125.976 216.373 123.265 215.75C121.439 215.33 119.647 214.771 117.905 214.08C117.285 213.845 116.82 213.615 116.5 213.475L116.145 213.305C116.06 213.27 116.02 213.245 116.025 213.24C116.069 213.252 116.113 213.267 116.155 213.285L116.525 213.43C116.85 213.555 117.315 213.765 117.94 213.985C119.691 214.637 121.485 215.167 123.31 215.57C126.015 216.166 128.758 216.573 131.52 216.79C134.64 217.05 138.08 217.165 141.695 217.195C145.087 217.238 148.478 217.071 151.85 216.695C154.601 216.372 157.329 215.881 160.02 215.225C161.833 214.773 163.597 214.141 165.285 213.34C165.875 213.05 166.335 212.815 166.635 212.645L166.985 212.455C167.075 212.445 167.115 212.425 167.12 212.43Z" fill="#263238"/>
<path d="M150.5 209.76C150.5 209.76 153.47 199.805 154.5 198.48C155.345 197.385 161.33 192.855 163.385 191.32C163.891 190.938 164.467 190.658 165.08 190.495C167.115 189.96 169.15 189.6 172.5 191.05C173.557 191.518 174.507 192.196 175.293 193.044C176.079 193.892 176.683 194.891 177.07 195.98L165.895 202.925L165.46 207.625L156.46 205.33C156.503 204.858 156.412 204.382 156.195 203.96C156.195 203.96 153.335 210.89 150.5 209.76Z" fill="#FFBE9D"/>
<path d="M139.71 202.69C138.575 201.19 137.63 199.745 136.88 198.52C136.13 197.295 135.595 196.265 135.24 195.52C135.077 195.134 134.881 194.763 134.655 194.41C134.771 194.813 134.919 195.206 135.1 195.585C135.557 196.631 136.071 197.651 136.64 198.64C137.493 200.1 138.421 201.515 139.42 202.88C140.54 204.425 141.855 206.065 143.25 207.76C145.2 210.1 147 212.285 148.465 214.2H148.87C147.405 212.2 145.56 209.935 143.555 207.525C142.16 205.84 140.845 204.215 139.71 202.69Z" fill="#F5F5F5"/>
<path d="M132.57 195.56C132.695 195.957 132.853 196.343 133.04 196.715C133.365 197.455 133.835 198.52 134.39 199.845C135.832 203.299 137.088 206.827 138.155 210.415C138.545 211.82 138.96 213.185 139.45 214.45H139.85C139.35 213.165 138.94 211.775 138.53 210.31C137.468 206.705 136.17 203.174 134.645 199.74C134.055 198.425 133.545 197.375 133.18 196.655C133.006 196.274 132.802 195.908 132.57 195.56Z" fill="#F5F5F5"/>
<path d="M133.55 194.365C133.698 194.759 133.876 195.14 134.085 195.505C134.455 196.23 135 197.27 135.685 198.55C137.06 201.105 138.985 204.63 141.33 208.395C142.69 210.585 144.055 212.59 145.33 214.345H145.75C144.48 212.54 143.08 210.465 141.68 208.2C139.34 204.445 137.38 200.95 135.945 198.43L134.235 195.43C134.036 195.057 133.807 194.701 133.55 194.365Z" fill="#F5F5F5"/>
<path d="M155.415 211.455C154.427 209.12 152.917 207.044 151 205.385C149.284 203.898 147.444 202.56 145.5 201.385C143.705 200.25 142 199.22 140.55 198.175C138.226 196.528 136.114 194.602 134.26 192.44C133.605 191.675 133.12 191.055 132.8 190.635L132.43 190.135C132.393 190.077 132.347 190.025 132.295 189.98C132.322 190.044 132.357 190.105 132.4 190.16L132.735 190.66C133.04 191.1 133.5 191.735 134.145 192.52C135.965 194.734 138.064 196.704 140.39 198.38C141.855 199.445 143.54 200.495 145.325 201.64C147.246 202.818 149.064 204.156 150.76 205.64C152.634 207.267 154.11 209.303 155.075 211.59C155.362 212.271 155.585 212.977 155.74 213.7L156.13 213.66C155.96 212.905 155.72 212.166 155.415 211.455Z" fill="#F5F5F5"/>
<path d="M154.5 213.105C153.848 211.457 152.947 209.92 151.83 208.545C150.453 206.875 148.893 205.366 147.18 204.045C145.385 202.62 143.59 201.39 141.99 200.235C140.39 199.08 138.99 198 137.85 197.03C136.957 196.264 136.109 195.448 135.31 194.585C135.034 194.25 134.738 193.931 134.425 193.63C134.47 193.735 134.53 193.833 134.605 193.92C134.73 194.1 134.93 194.36 135.195 194.685C135.955 195.594 136.78 196.446 137.665 197.235C138.979 198.399 140.351 199.498 141.775 200.525C143.37 201.7 145.155 202.94 146.935 204.35C148.625 205.652 150.172 207.13 151.55 208.76C152.659 210.097 153.565 211.589 154.24 213.19C154.33 213.405 154.405 213.615 154.48 213.82L154.74 213.795C154.68 213.58 154.61 213.35 154.5 213.105Z" fill="#F5F5F5"/>
<path d="M141.405 210.79C139.485 207.29 137.87 204.03 136.725 201.665L135.375 198.865C135.227 198.517 135.049 198.183 134.845 197.865C134.943 198.234 135.073 198.594 135.235 198.94C135.515 199.62 135.93 200.595 136.47 201.795C137.555 204.19 139.135 207.465 141.055 210.99C141.71 212.185 142.355 213.33 142.98 214.41H143.41C142.765 213.255 142.09 212.05 141.405 210.79Z" fill="#F5F5F5"/>
<path d="M145.4 206.3C142.706 203.649 140.159 200.853 137.77 197.925C136.855 196.8 136.135 195.875 135.63 195.235C135.388 194.881 135.119 194.546 134.825 194.235C135.023 194.608 135.252 194.964 135.51 195.3C135.975 195.97 136.66 196.925 137.555 198.075C139.886 201.074 142.415 203.914 145.125 206.575C146.705 208.14 148.31 209.52 149.655 210.875C150.629 211.831 151.508 212.879 152.28 214.005H152.61C151.839 212.787 150.935 211.658 149.915 210.64C148.565 209.24 146.97 207.855 145.4 206.3Z" fill="#F5F5F5"/>
<path d="M137.19 213.185C136.525 211.185 136.075 209.245 135.655 207.49C134.845 203.99 134.09 201.125 133.285 199.26C132.909 198.279 132.428 197.342 131.85 196.465C131.85 196.465 131.85 196.535 131.93 196.655L132.21 197.195C132.445 197.67 132.785 198.375 133.145 199.315C133.9 201.19 134.61 204.025 135.38 207.555C135.79 209.315 136.225 211.25 136.88 213.285C137.01 213.67 137.155 214.06 137.3 214.455H137.66C137.5 214.03 137.335 213.6 137.19 213.185Z" fill="#F5F5F5"/>
<path d="M157.34 207.145C157.38 207.14 157.42 207.14 157.46 207.145C157.577 207.139 157.693 207.139 157.81 207.145C158.115 207.17 158.565 207.22 159.14 207.3C160.768 207.524 162.375 207.881 163.945 208.365C164.461 208.548 164.963 208.77 165.445 209.03C165.715 209.172 165.95 209.374 166.13 209.62C166.22 209.759 166.279 209.916 166.303 210.08C166.328 210.244 166.316 210.411 166.27 210.57C166.215 210.729 166.13 210.876 166.018 211.002C165.907 211.129 165.771 211.231 165.62 211.305C165.347 211.485 165.057 211.639 164.755 211.765C164.136 212.03 163.499 212.252 162.85 212.43C159.97 213.214 157.035 213.777 154.07 214.115C148.685 214.689 143.263 214.839 137.855 214.565C135.78 214.485 134.105 214.385 132.945 214.315L131.61 214.22L131.265 214.19C131.225 214.199 131.185 214.199 131.145 214.19H131.615L132.95 214.235L137.86 214.4C143.258 214.625 148.666 214.458 154.04 213.9C156.991 213.56 159.914 213.005 162.785 212.24C163.425 212.066 164.053 211.85 164.665 211.595C164.957 211.477 165.236 211.332 165.5 211.16C165.759 211.038 165.961 210.822 166.065 210.555C166.104 210.425 166.114 210.288 166.095 210.153C166.076 210.019 166.028 209.89 165.955 209.775C165.794 209.554 165.585 209.371 165.345 209.24C164.874 208.984 164.384 208.763 163.88 208.58C162.322 208.083 160.729 207.702 159.115 207.44C158.545 207.345 158.115 207.275 157.8 207.235C157.485 207.195 157.34 207.155 157.34 207.145Z" fill="#263238"/>
<path d="M159.765 201C159.81 201.06 158.88 201.785 157.815 202.77C156.75 203.755 155.955 204.625 155.895 204.575C156.916 203.121 158.235 201.903 159.765 201Z" fill="#EB996E"/>
<path d="M159.545 204.94C159.03 204.745 158.489 204.632 157.94 204.605C157.391 204.656 156.853 204.791 156.345 205.005C156.345 204.98 156.455 204.83 156.735 204.67C157.099 204.463 157.51 204.351 157.93 204.345C158.351 204.335 158.769 204.429 159.145 204.62C159.43 204.77 159.565 204.915 159.545 204.94Z" fill="#EB996E"/>
<path d="M68.8447 101.74C68.5547 101.97 52.6997 109.09 52.6997 109.09C52.6997 109.09 57.0647 118.36 65.5347 114.23C73.2697 110.46 68.8447 101.74 68.8447 101.74Z" fill="#455A64"/>
<path d="M68.6701 50.5352C69.0251 50.5352 69.3201 62.8452 69.3201 78.0352C69.3201 93.2252 69.0251 105.535 68.6701 105.535C68.3151 105.535 68.0151 93.2302 68.0151 78.0352C68.0151 62.8402 68.3101 50.5352 68.6701 50.5352Z" fill="#455A64"/>
<path d="M57.3847 87.6699C57.0947 87.8999 41.2397 95.0199 41.2397 95.0199C41.2397 95.0199 45.6047 104.29 54.0797 100.16C61.8147 96.3899 57.3847 87.6699 57.3847 87.6699Z" fill="#455A64"/>
<path d="M57.2101 49.605C57.5701 49.605 57.8601 58.975 57.8601 70.53C57.8601 82.085 57.5701 91.455 57.2101 91.455C56.8501 91.455 56.5601 82.085 56.5601 70.53C56.5601 58.975 56.8501 49.605 57.2101 49.605Z" fill="#455A64"/>
<path d="M43.5001 73.7949C43.2051 74.0199 27.3501 81.1399 27.3501 81.1399C27.3501 81.1399 31.7201 90.4099 40.1901 86.2799C47.9351 82.4999 43.5001 73.7949 43.5001 73.7949Z" fill="#455A64"/>
<path d="M43.3302 51C43.6902 51 43.9802 56.945 43.9802 64.275C43.9802 71.605 43.6902 77.555 43.3302 77.555C42.9702 77.555 42.6802 71.61 42.6802 64.275C42.6802 56.94 42.9702 51 43.3302 51Z" fill="#455A64"/>
<path d="M87.5301 104.265C96.4771 104.265 103.73 97.0123 103.73 88.0652C103.73 79.1182 96.4771 71.8652 87.5301 71.8652C78.5831 71.8652 71.3301 79.1182 71.3301 88.0652C71.3301 97.0123 78.5831 104.265 87.5301 104.265Z" fill="#455A64"/>
<path d="M86.9248 73.6802L85.6548 52.8452H91.6248L89.9698 73.6802H86.9248Z" fill="#455A64"/>
<path d="M94.3447 99.43L94.2397 99.505L93.9097 99.695C93.7647 99.775 93.5897 99.89 93.3697 99.995L92.5997 100.34C90.9301 101.016 89.1406 101.346 87.3397 101.31C84.6597 101.264 82.0519 100.433 79.8397 98.92C78.538 98.0157 77.4255 96.8658 76.5647 95.535C74.6996 92.6593 73.9641 89.1954 74.4997 85.81C74.7416 84.2446 75.2868 82.7415 76.1047 81.385C77.5139 79.0961 79.5635 77.2707 81.9997 76.135C83.6304 75.3688 85.3991 74.9402 87.1997 74.875H87.9997C88.2447 74.875 88.4497 74.915 88.6147 74.925L88.9897 74.97C89.0329 74.9649 89.0765 74.9649 89.1197 74.97H88.9997H88.6197C88.4547 74.97 88.2497 74.94 88.0047 74.94H87.1697C85.3919 75.0468 83.6515 75.4968 82.0447 76.265C79.6592 77.4148 77.6596 79.2337 76.2897 81.5C75.4909 82.833 74.9594 84.3088 74.7247 85.845C74.2098 89.1686 74.934 92.5655 76.7597 95.39C77.5986 96.6967 78.6838 97.8278 79.9547 98.72C81.7791 99.9694 83.8779 100.76 86.0731 101.026C88.2682 101.291 90.4951 101.023 92.5647 100.245L93.3347 99.92C93.5597 99.82 93.7347 99.72 93.8847 99.645L94.2247 99.475L94.3447 99.43Z" fill="#263238"/>
<path d="M22.5801 25.895L28.3151 46.645H52.6101L58.3501 25.895H22.5801Z" fill="#455A64"/>
<path d="M57.2097 30.0001C57.2097 30.0751 49.7097 30.1351 40.4647 30.1351C31.2197 30.1351 23.7197 30.0801 23.7197 30.0001C23.7197 29.9201 31.2197 29.8701 40.4647 29.8701C49.7097 29.8701 57.2097 29.9351 57.2097 30.0001Z" fill="#263238"/>
<path d="M61.665 31.2452H56.665L57.465 29.0752H61.64C61.9278 29.0752 62.2038 29.1895 62.4072 29.393C62.6107 29.5965 62.725 29.8724 62.725 30.1602C62.7251 30.4437 62.6142 30.7159 62.4161 30.9187C62.218 31.1215 61.9484 31.2387 61.665 31.2452Z" fill="#263238"/>
<path d="M19.2251 31.2452H24.2001L23.4051 29.0752H19.2251C18.9374 29.0752 18.6614 29.1895 18.4579 29.393C18.2544 29.5965 18.1401 29.8724 18.1401 30.1602C18.1401 30.448 18.2544 30.7239 18.4579 30.9274C18.6614 31.1309 18.9374 31.2452 19.2251 31.2452Z" fill="#263238"/>
<path d="M107.175 46.3652H16.4399V52.8502H107.175V46.3652Z" fill="#FFCB45"/>
<path d="M224.56 138.71C223.893 138.45 223.15 138.465 222.494 138.752C221.838 139.039 221.322 139.574 221.06 140.24L217.035 151.025L222.035 152.865L226.095 142.185C226.349 141.521 226.33 140.783 226.042 140.132C225.755 139.481 225.222 138.97 224.56 138.71Z" fill="#FFCB45"/>
<path d="M224.45 142.12C224.45 142.348 224.383 142.57 224.256 142.76C224.13 142.949 223.95 143.096 223.739 143.183C223.529 143.27 223.297 143.293 223.074 143.248C222.851 143.203 222.646 143.093 222.485 142.932C222.325 142.77 222.216 142.565 222.172 142.342C222.128 142.118 222.152 141.887 222.239 141.677C222.327 141.467 222.475 141.287 222.665 141.162C222.855 141.036 223.078 140.969 223.305 140.97C223.456 140.97 223.606 140.999 223.746 141.056C223.885 141.114 224.012 141.199 224.118 141.306C224.225 141.413 224.309 141.54 224.366 141.68C224.423 141.82 224.452 141.969 224.45 142.12Z" fill="#FAFAFA"/>
<path d="M221.6 149.19C221.601 149.418 221.535 149.641 221.409 149.831C221.283 150.02 221.104 150.169 220.894 150.256C220.684 150.344 220.452 150.368 220.229 150.324C220.006 150.28 219.8 150.171 219.639 150.01C219.478 149.85 219.368 149.645 219.323 149.422C219.278 149.198 219.3 148.967 219.387 148.756C219.474 148.546 219.622 148.366 219.811 148.24C220 148.113 220.223 148.045 220.45 148.045C220.754 148.045 221.046 148.166 221.262 148.38C221.477 148.595 221.599 148.886 221.6 149.19Z" fill="#FAFAFA"/>
<path d="M217.045 151.025L209.29 171.255L218.835 171.135L226.62 154.42L217.045 151.025Z" fill="#E0E0E0"/>
<path d="M224.255 171.255H197.505V202.02H224.255V171.255Z" fill="#FFCB45"/>
<path d="M224.255 178.915C224.255 178.99 218.255 179.05 210.88 179.05C203.505 179.05 197.5 179 197.5 178.915C197.5 178.83 203.5 178.785 210.875 178.785C218.25 178.785 224.255 178.845 224.255 178.915Z" fill="white"/>
<path d="M224.255 182.23C224.255 182.3 218.255 182.36 210.88 182.36C203.505 182.36 197.5 182.3 197.5 182.23C197.5 182.16 203.5 182.1 210.875 182.1C218.25 182.1 224.255 182.155 224.255 182.23Z" fill="white"/>
<path d="M224.255 185.54C224.255 185.615 218.255 185.67 210.88 185.67C203.505 185.67 197.505 185.615 197.505 185.54C197.505 185.465 203.505 185.41 210.88 185.41C218.255 185.41 224.255 185.47 224.255 185.54Z" fill="white"/>
<path d="M224.255 188.855C224.255 188.925 218.255 188.985 210.88 188.985C203.505 188.985 197.505 188.925 197.505 188.855C197.505 188.785 203.505 188.725 210.88 188.725C218.255 188.725 224.255 188.78 224.255 188.855Z" fill="white"/>
<path d="M224.255 192.165C224.255 192.235 218.255 192.295 210.88 192.295C203.505 192.295 197.505 192.235 197.505 192.165C197.505 192.095 203.505 192.035 210.88 192.035C218.255 192.035 224.255 192.095 224.255 192.165Z" fill="white"/>
<path d="M224.255 195.5C224.255 195.575 218.255 195.63 210.88 195.63C203.505 195.63 197.5 195.55 197.5 195.5C197.5 195.45 203.5 195.37 210.875 195.37C218.25 195.37 224.255 195.405 224.255 195.5Z" fill="white"/>
<path d="M181.785 154.32L199.67 155.75C199.67 155.75 200.17 147.065 191.8 146.145C183.43 145.225 181.785 154.32 181.785 154.32Z" fill="#455A64"/>
<path d="M204.575 171.255C204.235 171.37 202.375 166.915 200.425 161.3C198.475 155.685 197.165 151.03 197.505 150.915C197.845 150.8 199.7 155.255 201.655 160.87C203.61 166.485 204.915 171.135 204.575 171.255Z" fill="#455A64"/>
<path d="M205.645 230.17C205.529 230.207 205.411 230.234 205.29 230.25L204.265 230.42L203.525 230.535C203.25 230.57 202.955 230.59 202.635 230.625C201.995 230.68 201.27 230.775 200.465 230.785L199.2 230.825C198.76 230.825 198.3 230.825 197.825 230.825C196.875 230.825 195.865 230.73 194.825 230.645C190.195 230.198 185.676 228.965 181.46 227C180.505 226.53 179.585 226.095 178.765 225.61C178.355 225.375 177.95 225.16 177.575 224.925L176.5 224.22C175.81 223.8 175.235 223.345 174.715 222.975C174.455 222.785 174.215 222.615 173.995 222.445L173.415 221.945L172.62 221.28C172.525 221.206 172.436 221.124 172.355 221.035C172.463 221.09 172.564 221.159 172.655 221.24L173.48 221.865L174.07 222.325C174.29 222.49 174.535 222.655 174.8 222.825C175.325 223.185 175.905 223.625 176.6 224.035L177.67 224.7C178.045 224.93 178.45 225.135 178.86 225.365C179.68 225.84 180.595 226.265 181.55 226.73C183.655 227.677 185.828 228.466 188.05 229.09C190.275 229.683 192.541 230.107 194.83 230.36C195.885 230.45 196.89 230.555 197.83 230.56C198.305 230.56 198.76 230.605 199.195 230.595L200.46 230.57C201.26 230.57 201.985 230.49 202.625 230.45C202.94 230.45 203.24 230.41 203.51 230.38L204.25 230.29L205.28 230.165C205.402 230.157 205.524 230.159 205.645 230.17Z" fill="#455A64"/>
<path d="M184.355 228.2C180.605 227.7 175.705 229.15 172.895 231.7C176.88 231.164 180.751 229.982 184.355 228.2Z" fill="#455A64"/>
<path d="M184.545 228.245C185.92 224.715 183.89 219.745 183.89 219.745C183.495 219.075 183.67 224.33 184.545 228.245Z" fill="#455A64"/>
<path d="M178.625 225.445C179.625 222.855 178.17 219.215 178.17 219.215C177.89 218.715 178.005 222.58 178.625 225.445Z" fill="#455A64"/>
<path d="M189.845 229.5C190.845 226.91 189.39 223.27 189.39 223.27C189.105 222.77 189.22 226.635 189.845 229.5Z" fill="#455A64"/>
<path d="M178.74 225.5C175.945 225.13 172.3 226.21 170.215 228.1C173.179 227.704 176.059 226.825 178.74 225.5Z" fill="#455A64"/>
<path d="M190.415 229.895C186.45 229.95 181.6 232.2 179.075 235.255C183.121 234.098 186.952 232.287 190.415 229.895Z" fill="#455A64"/>
<path d="M205.525 210.96C204.716 209.746 203.594 208.773 202.278 208.145C200.961 207.517 199.499 207.257 198.047 207.393C196.594 207.529 195.206 208.055 194.029 208.917C192.851 209.778 191.929 210.942 191.36 212.285C190.452 214.585 190.493 217.151 191.475 219.42C192.471 221.664 194.092 223.573 196.145 224.92C201.43 228.52 209.095 228.355 214.005 224.26C215.83 222.76 217.295 220.665 217.63 218.315C217.824 216.948 217.632 215.553 217.076 214.29C216.52 213.026 215.621 211.942 214.482 211.162C213.342 210.382 212.007 209.936 210.628 209.875C209.248 209.814 207.879 210.139 206.675 210.815" fill="#FFCB45"/>
<path d="M205.545 210.95C205.37 210.307 204.972 209.747 204.422 209.37C203.873 208.993 203.208 208.823 202.545 208.89L204.315 210.995C203.834 211.061 203.379 211.253 202.997 211.553C202.614 211.853 202.319 212.248 202.14 212.7C202.06 212.915 202.035 213.2 202.24 213.33C202.312 213.354 202.389 213.362 202.465 213.353C202.541 213.344 202.614 213.319 202.68 213.28L204.83 212.39C204.977 213.589 205.417 214.735 206.11 215.725C206.602 214.672 206.877 213.531 206.92 212.37L209.295 213.42C209.107 212.736 208.719 212.125 208.18 211.665C208.888 211.531 209.566 211.268 210.18 210.89C210.365 210.775 210.565 210.58 210.485 210.39C210.405 210.2 210.225 210.195 210.06 210.18C208.491 210.031 206.914 210.359 205.535 211.12" fill="#455A64"/>
<path d="M205.39 211.84C205.758 209.437 205.556 206.981 204.8 204.67C205.365 204.545 206.06 204.46 206.43 204.91C206.613 205.193 206.697 205.529 206.67 205.865C206.697 208.14 206.265 210.396 205.4 212.5" fill="#455A64"/>
<path d="M193.86 220.445C193.719 220.34 193.595 220.215 193.49 220.075C193.182 219.707 192.916 219.306 192.695 218.88C191.943 217.462 191.678 215.838 191.94 214.255C192.202 212.672 192.977 211.219 194.145 210.12C194.489 209.786 194.87 209.492 195.28 209.245C195.426 209.147 195.584 209.068 195.75 209.01C195.233 209.392 194.741 209.806 194.275 210.25C193.176 211.348 192.448 212.762 192.195 214.295C191.941 215.828 192.174 217.401 192.86 218.795C193.158 219.365 193.492 219.916 193.86 220.445Z" fill="white"/>
<path d="M196.245 222.245C196.22 222.31 195.845 222.245 195.465 221.96C195.085 221.675 194.89 221.36 194.965 221.315C195.04 221.27 195.29 221.5 195.635 221.75C195.98 222 196.27 222.175 196.245 222.245Z" fill="white"/>
<path d="M95.7647 183.525C95.5447 183.575 97.1597 191.685 97.1597 191.685H101.29L103.115 183.85C100.747 183.038 98.1951 182.925 95.7647 183.525Z" fill="#455A64"/>
<path d="M93.2749 229.18C93.2749 229.18 87.1949 212.15 88.0449 207.53C88.8949 202.91 90.7199 201.935 92.1799 200.475C93.6399 199.015 94.8549 197.8 95.2199 196.34C95.5849 194.88 95.2199 189.045 95.2199 189.045C95.2199 189.045 94.1249 187.34 94.4899 186.735C94.8549 186.13 103.855 186.735 103.855 186.735C103.804 187.477 103.551 188.191 103.125 188.8C103.125 188.8 102.885 195.61 103.25 196.34C103.615 197.07 109.21 203.275 110.06 206.435C110.91 209.595 106.7 229.18 106.7 229.18H93.2749Z" fill="#F5F5F5"/>
<path d="M93.2749 229.18H93.5099H94.1949H96.8349L106.7 229.135L106.62 229.2C107.12 226.725 107.695 223.92 108.265 220.835C108.835 217.75 109.43 214.38 109.845 210.765C109.94 209.86 110.025 208.945 110.045 208.01C110.131 207.074 109.931 206.134 109.47 205.315C108.54 203.583 107.454 201.939 106.225 200.405C105.615 199.605 104.975 198.81 104.33 198.01C104.01 197.605 103.685 197.205 103.37 196.785C103.285 196.676 103.207 196.563 103.135 196.445C103.084 196.311 103.051 196.172 103.035 196.03C102.997 195.766 102.974 195.501 102.965 195.235C102.87 193.13 102.935 191 102.995 188.835V188.8V188.77C103.085 188.62 103.185 188.46 103.27 188.27C103.513 187.804 103.659 187.294 103.7 186.77L103.82 186.895C101.77 186.765 99.7399 186.665 97.7549 186.63C96.7817 186.595 95.8072 186.633 94.8399 186.745C94.7487 186.76 94.6608 186.79 94.5799 186.835C94.5358 186.916 94.515 187.008 94.5199 187.1C94.5344 187.327 94.585 187.549 94.6699 187.76C94.8415 188.195 95.0523 188.613 95.2999 189.01V189.04V189.07C95.3899 190.625 95.4549 192.155 95.4599 193.66C95.4717 194.409 95.4433 195.159 95.3749 195.905C95.2812 196.651 95.0009 197.361 94.5599 197.97C94.1459 198.558 93.6826 199.11 93.1749 199.62C92.6749 200.12 92.1749 200.62 91.6749 201.095C91.1655 201.539 90.6846 202.015 90.2349 202.52C89.8116 203.018 89.4522 203.568 89.1649 204.155C88.6298 205.295 88.2611 206.505 88.0699 207.75C88.0074 208.345 88.0074 208.945 88.0699 209.54C88.1099 210.125 88.1899 210.705 88.2699 211.27C88.6224 213.352 89.0796 215.414 89.6399 217.45C90.6399 221.17 91.5799 224.1 92.2249 226.115C92.5549 227.115 92.8099 227.88 92.9849 228.415C93.0699 228.67 93.1299 228.87 93.1799 229.01C93.2299 229.15 93.2399 229.215 93.2399 229.215C93.2085 229.152 93.1818 229.087 93.1599 229.02L92.9399 228.43C92.7549 227.93 92.4849 227.14 92.1449 226.14C91.4699 224.14 90.4999 221.215 89.4799 217.49C88.9799 215.63 88.4549 213.57 88.0799 211.3C87.9949 210.73 87.9149 210.15 87.8699 209.55C87.8025 208.942 87.8025 208.328 87.8699 207.72C88.061 206.453 88.4331 205.221 88.9749 204.06C89.2686 203.455 89.6364 202.889 90.0699 202.375C90.5232 201.862 91.0092 201.38 91.5249 200.93C92.0249 200.465 92.5249 199.965 92.9999 199.46C93.4984 198.958 93.9533 198.414 94.3599 197.835C94.7775 197.257 95.0423 196.583 95.1299 195.875C95.1945 195.138 95.2212 194.399 95.2099 193.66C95.2099 192.16 95.1349 190.635 95.0449 189.085V189.145C94.7825 188.734 94.5614 188.299 94.3849 187.845C94.2926 187.606 94.237 187.355 94.2199 187.1C94.2111 186.951 94.2515 186.804 94.3349 186.68C94.4477 186.578 94.5891 186.514 94.7399 186.495C95.7269 186.378 96.7216 186.337 97.7149 186.375C99.7149 186.405 101.715 186.505 103.795 186.64H104V186.765C103.962 187.334 103.807 187.889 103.545 188.395C103.456 188.567 103.357 188.734 103.25 188.895V188.83C103.19 190.985 103.125 193.12 103.215 195.205C103.225 195.463 103.249 195.72 103.285 195.975C103.298 196.091 103.323 196.205 103.36 196.315C103.425 196.415 103.49 196.515 103.57 196.62C103.875 197.03 104.205 197.43 104.525 197.83C105.17 198.635 105.81 199.43 106.42 200.235C107.659 201.784 108.752 203.444 109.685 205.195C110.159 206.05 110.366 207.027 110.28 208C110.28 208.945 110.17 209.87 110.07 210.775C109.65 214.4 109.035 217.775 108.465 220.855C107.895 223.935 107.31 226.75 106.775 229.22V229.29H106.705L96.7999 229.245H94.1749H93.5049L93.2749 229.18Z" fill="#263238"/>
<path d="M105.535 227.415C107.076 221.724 108.096 215.905 108.585 210.03C108.64 209.36 108.64 208.585 108.13 208.14C107.51 207.6 106.565 207.89 105.78 208.14C103.473 208.872 101.017 209.003 98.6447 208.52C96.3397 208.02 94.0497 206.99 91.7297 207.375C91.4345 207.4 91.1473 207.484 90.8853 207.622C90.6233 207.76 90.3918 207.95 90.2047 208.18C89.8297 208.74 89.9197 209.475 90.0247 210.14C90.9397 215.86 92.8047 222.43 94.3197 227.415H105.535Z" fill="#FFCB45"/>
<path d="M107.06 208.845C106.935 209.02 106.789 209.18 106.625 209.32C106.196 209.726 105.735 210.095 105.245 210.425C103.63 211.537 101.772 212.245 99.8262 212.49C97.8807 212.734 95.9049 212.508 94.065 211.83C93.5089 211.632 92.9703 211.388 92.455 211.1C92.26 211.006 92.0784 210.887 91.915 210.745C91.915 210.7 92.725 211.19 94.125 211.66C95.9446 212.272 97.8788 212.465 99.7834 212.225C101.688 211.985 103.514 211.319 105.125 210.275C106.385 209.5 107.025 208.805 107.06 208.845Z" fill="white"/>
</svg>
