<svg width="81" height="81" viewBox="0 0 81 81" fill="none" xmlns="http://www.w3.org/2000/svg">
<rect x="0.318817" y="0.741959" width="80" height="80" rx="23" fill="#054F48"/>
<path d="M40.5234 56.1842C31.7789 56.1842 24.6901 49.0953 24.6901 40.3509C24.6901 31.6063 31.7789 24.5175 40.5234 24.5175C49.2679 24.5175 56.3568 31.6063 56.3568 40.3509C56.3568 49.0953 49.2679 56.1842 40.5234 56.1842ZM40.5234 53.0175C47.5191 53.0175 53.1901 47.3465 53.1901 40.3509C53.1901 33.3552 47.5191 27.6842 40.5234 27.6842C33.5278 27.6842 27.8568 33.3552 27.8568 40.3509C27.8568 47.3465 33.5278 53.0175 40.5234 53.0175ZM42.1068 40.3509L48.4401 40.3509L48.4401 43.5175L38.9401 43.5175L38.9401 32.4342L42.1068 32.4342L42.1068 40.3509Z" fill="white"/>
</svg>
